Interstate-Extra_Light.ufo
<glyph name="exclam" format="1">
  <advance width="244"/>
  <unicode hex="0021"/>
  <outline>
    <contour>
      <point x="144" y="371" type="line"/>
      <point x="134" y="163" type="line"/>
      <point x="109" y="163" type="line"/>
      <point x="99" y="371" type="line"/>
      <point x="99" y="700" type="line"/>
      <point x="144" y="700" type="line"/>
    </contour>
    <contour>
      <point x="159" y="31" type="curve" smooth="yes"/>
      <point x="159" y="11"/>
      <point x="141" y="-6"/>
      <point x="122" y="-6" type="curve" smooth="yes"/>
      <point x="102" y="-6"/>
      <point x="85" y="11"/>
      <point x="85" y="31" type="curve" smooth="yes"/>
      <point x="85" y="51"/>
      <point x="102" y="69"/>
      <point x="122" y="69" type="curve" smooth="yes"/>
      <point x="141" y="69"/>
      <point x="159" y="51"/>
    </contour>
  </outline>
</glyph>
<glyph name="quotedbl" format="1">
  <advance width="441"/>
  <unicode hex="0022"/>
  <outline>
    <contour>
      <point x="346" y="700" type="line"/>
      <point x="337" y="428" type="line"/>
      <point x="301" y="428" type="line"/>
      <point x="292" y="700" type="line"/>
    </contour>
    <contour>
      <point x="149" y="700" type="line"/>
      <point x="139" y="428" type="line"/>
      <point x="104" y="428" type="line"/>
      <point x="94" y="700" type="line"/>
    </contour>
  </outline>
</glyph>
<glyph name="numbersign" format="1">
  <advance width="658"/>
  <unicode hex="0023"/>
  <outline>
    <contour>
      <point x="603" y="194" type="line"/>
      <point x="477" y="194" type="line"/>
      <point x="477" y="0" type="line"/>
      <point x="432" y="0" type="line"/>
      <point x="432" y="194" type="line"/>
      <point x="226" y="194" type="line"/>
      <point x="226" y="0" type="line"/>
      <point x="182" y="0" type="line"/>
      <point x="182" y="194" type="line"/>
      <point x="55" y="194" type="line"/>
      <point x="55" y="236" type="line"/>
      <point x="182" y="236" type="line"/>
      <point x="182" y="464" type="line"/>
      <point x="55" y="464" type="line"/>
      <point x="55" y="505" type="line"/>
      <point x="182" y="505" type="line"/>
      <point x="182" y="700" type="line"/>
      <point x="226" y="700" type="line"/>
      <point x="226" y="505" type="line"/>
      <point x="432" y="505" type="line"/>
      <point x="432" y="700" type="line"/>
      <point x="477" y="700" type="line"/>
      <point x="477" y="505" type="line"/>
      <point x="603" y="505" type="line"/>
      <point x="603" y="464" type="line"/>
      <point x="477" y="464" type="line"/>
      <point x="477" y="236" type="line"/>
      <point x="603" y="236" type="line"/>
    </contour>
    <contour>
      <point x="432" y="236" type="line"/>
      <point x="432" y="464" type="line"/>
      <point x="226" y="464" type="line"/>
      <point x="226" y="236" type="line"/>
    </contour>
  </outline>
</glyph>
<glyph name="dollar" format="1">
  <advance width="568"/>
  <unicode hex="0024"/>
  <outline>
    <contour>
      <point x="498" y="179" type="curve" smooth="yes"/>
      <point x="498" y="70"/>
      <point x="415" y="3"/>
      <point x="301" y="-4" type="curve"/>
      <point x="301" y="-100" type="line"/>
      <point x="257" y="-100" type="line"/>
      <point x="257" y="-4" type="line"/>
      <point x="176" y="1"/>
      <point x="111" y="31"/>
      <point x="59" y="77" type="curve"/>
      <point x="86" y="112" type="line"/>
      <point x="143" y="65"/>
      <point x="204" y="37"/>
      <point x="282" y="37" type="curve" smooth="yes"/>
      <point x="378" y="37"/>
      <point x="452" y="83"/>
      <point x="452" y="176" type="curve" smooth="yes"/>
      <point x="452" y="254"/>
      <point x="409" y="292"/>
      <point x="269" y="344" type="curve" smooth="yes"/>
      <point x="119" y="400"/>
      <point x="72" y="439"/>
      <point x="72" y="536" type="curve" smooth="yes"/>
      <point x="72" y="629"/>
      <point x="140" y="697"/>
      <point x="257" y="704" type="curve"/>
      <point x="257" y="800" type="line"/>
      <point x="301" y="800" type="line"/>
      <point x="301" y="705" type="line"/>
      <point x="383" y="701"/>
      <point x="435" y="675"/>
      <point x="485" y="639" type="curve"/>
      <point x="459" y="602" type="line"/>
      <point x="407" y="640"/>
      <point x="357" y="663"/>
      <point x="278" y="663" type="curve" smooth="yes"/>
      <point x="168" y="663"/>
      <point x="118" y="605"/>
      <point x="118" y="538" type="curve" smooth="yes"/>
      <point x="118" y="468"/>
      <point x="150" y="436"/>
      <point x="294" y="383" type="curve" smooth="yes"/>
      <point x="450" y="325"/>
      <point x="498" y="277"/>
    </contour>
  </outline>
</glyph>
<glyph name="percent" format="1">
  <advance width="908"/>
  <unicode hex="0025"/>
  <outline>
    <contour>
      <point x="369" y="502" type="curve" smooth="yes"/>
      <point x="369" y="375"/>
      <point x="308" y="294"/>
      <point x="214" y="294" type="curve" smooth="yes"/>
      <point x="120" y="294"/>
      <point x="61" y="374"/>
      <point x="61" y="501" type="curve" smooth="yes"/>
      <point x="61" y="630"/>
      <point x="120" y="711"/>
      <point x="215" y="711" type="curve" smooth="yes"/>
      <point x="312" y="711"/>
      <point x="369" y="630"/>
    </contour>
    <contour>
      <point x="693" y="700" type="line"/>
      <point x="258" y="0" type="line"/>
      <point x="214" y="0" type="line"/>
      <point x="649" y="700" type="line"/>
    </contour>
    <contour>
      <point x="846" y="198" type="curve" smooth="yes"/>
      <point x="846" y="70"/>
      <point x="786" y="-11"/>
      <point x="692" y="-11" type="curve" smooth="yes"/>
      <point x="598" y="-11"/>
      <point x="539" y="69"/>
      <point x="539" y="197" type="curve" smooth="yes"/>
      <point x="539" y="325"/>
      <point x="598" y="406"/>
      <point x="693" y="406" type="curve" smooth="yes"/>
      <point x="789" y="406"/>
      <point x="846" y="325"/>
    </contour>
    <contour>
      <point x="328" y="501" type="curve" smooth="yes"/>
      <point x="328" y="608"/>
      <point x="285" y="675"/>
      <point x="215" y="675" type="curve" smooth="yes"/>
      <point x="144" y="675"/>
      <point x="102" y="609"/>
      <point x="102" y="502" type="curve" smooth="yes"/>
      <point x="102" y="396"/>
      <point x="145" y="330"/>
      <point x="215" y="330" type="curve" smooth="yes"/>
      <point x="286" y="330"/>
      <point x="328" y="400"/>
    </contour>
    <contour>
      <point x="805" y="197" type="curve" smooth="yes"/>
      <point x="805" y="303"/>
      <point x="763" y="370"/>
      <point x="692" y="370" type="curve" smooth="yes"/>
      <point x="622" y="370"/>
      <point x="580" y="304"/>
      <point x="580" y="198" type="curve" smooth="yes"/>
      <point x="580" y="92"/>
      <point x="622" y="25"/>
      <point x="693" y="25" type="curve" smooth="yes"/>
      <point x="764" y="25"/>
      <point x="805" y="95"/>
    </contour>
  </outline>
</glyph>
<glyph name="ampersand" format="1">
  <advance width="628"/>
  <unicode hex="0026"/>
  <outline>
    <contour>
      <point x="583" y="0" type="line"/>
      <point x="529" y="0" type="line"/>
      <point x="459" y="89" type="line"/>
      <point x="404" y="23"/>
      <point x="334" y="-11"/>
      <point x="257" y="-11" type="curve" smooth="yes"/>
      <point x="123" y="-11"/>
      <point x="59" y="66"/>
      <point x="59" y="173" type="curve" smooth="yes"/>
      <point x="59" y="276"/>
      <point x="121" y="342"/>
      <point x="223" y="393" type="curve"/>
      <point x="200" y="423" type="line" smooth="yes"/>
      <point x="161" y="474"/>
      <point x="132" y="515"/>
      <point x="132" y="572" type="curve" smooth="yes"/>
      <point x="132" y="655"/>
      <point x="200" y="711"/>
      <point x="295" y="711" type="curve" smooth="yes"/>
      <point x="371" y="711"/>
      <point x="426" y="689"/>
      <point x="477" y="650" type="curve"/>
      <point x="453" y="614" type="line"/>
      <point x="401" y="653"/>
      <point x="357" y="671"/>
      <point x="294" y="671" type="curve" smooth="yes"/>
      <point x="227" y="671"/>
      <point x="178" y="633"/>
      <point x="178" y="574" type="curve" smooth="yes"/>
      <point x="178" y="527"/>
      <point x="199" y="495"/>
      <point x="234" y="450" type="curve" smooth="yes"/>
      <point x="461" y="158" type="line"/>
      <point x="485" y="197"/>
      <point x="504" y="247"/>
      <point x="520" y="304" type="curve"/>
      <point x="559" y="293" type="line"/>
      <point x="542" y="228"/>
      <point x="517" y="170"/>
      <point x="487" y="124" type="curve"/>
    </contour>
    <contour>
      <point x="434" y="120" type="curve"/>
      <point x="247" y="363" type="line"/>
      <point x="152" y="318"/>
      <point x="103" y="256"/>
      <point x="103" y="174" type="curve" smooth="yes"/>
      <point x="103" y="87"/>
      <point x="161" y="29"/>
      <point x="258" y="29" type="curve" smooth="yes"/>
      <point x="326" y="29"/>
      <point x="387" y="58"/>
    </contour>
  </outline>
</glyph>
<glyph name="quotesingle" format="1">
  <advance width="241"/>
  <unicode hex="0027"/>
  <outline>
    <contour>
      <point x="148" y="700" type="line"/>
      <point x="139" y="428" type="line"/>
      <point x="102" y="428" type="line"/>
      <point x="93" y="700" type="line"/>
    </contour>
  </outline>
</glyph>
<glyph name="parenleft" format="1">
  <advance width="349"/>
  <unicode hex="0028"/>
  <outline>
    <contour>
      <point x="280" y="-92" type="curve"/>
      <point x="259" y="-110" type="line"/>
      <point x="167" y="-18"/>
      <point x="74" y="117"/>
      <point x="74" y="300" type="curve" smooth="yes"/>
      <point x="74" y="494"/>
      <point x="161" y="622"/>
      <point x="260" y="716" type="curve"/>
      <point x="279" y="698" type="line"/>
      <point x="185" y="600"/>
      <point x="119" y="480"/>
      <point x="119" y="303" type="curve" smooth="yes"/>
      <point x="119" y="129"/>
      <point x="191" y="3"/>
    </contour>
  </outline>
</glyph>
<glyph name="parenright" format="1">
  <advance width="349"/>
  <unicode hex="0029"/>
  <outline>
    <contour>
      <point x="275" y="306" type="curve" smooth="yes"/>
      <point x="275" y="112"/>
      <point x="188" y="-16"/>
      <point x="89" y="-110" type="curve"/>
      <point x="70" y="-92" type="line"/>
      <point x="164" y="6"/>
      <point x="230" y="126"/>
      <point x="230" y="303" type="curve" smooth="yes"/>
      <point x="230" y="477"/>
      <point x="158" y="603"/>
      <point x="69" y="698" type="curve"/>
      <point x="90" y="716" type="line"/>
      <point x="182" y="624"/>
      <point x="275" y="489"/>
    </contour>
  </outline>
</glyph>
<glyph name="asterisk" format="1">
  <advance width="487"/>
  <unicode hex="002A"/>
  <outline>
    <contour>
      <point x="415" y="434" type="line"/>
      <point x="397" y="402" type="line"/>
      <point x="252" y="498" type="line"/>
      <point x="262" y="324" type="line"/>
      <point x="225" y="324" type="line"/>
      <point x="235" y="498" type="line"/>
      <point x="90" y="402" type="line"/>
      <point x="72" y="434" type="line"/>
      <point x="225" y="512" type="line"/>
      <point x="72" y="590" type="line"/>
      <point x="90" y="622" type="line"/>
      <point x="235" y="526" type="line"/>
      <point x="225" y="700" type="line"/>
      <point x="262" y="700" type="line"/>
      <point x="252" y="526" type="line"/>
      <point x="397" y="622" type="line"/>
      <point x="415" y="590" type="line"/>
      <point x="262" y="512" type="line"/>
    </contour>
  </outline>
</glyph>
<glyph name="plus" format="1">
  <advance width="573"/>
  <unicode hex="002B"/>
  <outline>
    <contour>
      <point x="518" y="324" type="line"/>
      <point x="308" y="324" type="line"/>
      <point x="308" y="97" type="line"/>
      <point x="265" y="97" type="line"/>
      <point x="265" y="324" type="line"/>
      <point x="55" y="324" type="line"/>
      <point x="55" y="364" type="line"/>
      <point x="265" y="364" type="line"/>
      <point x="265" y="591" type="line"/>
      <point x="308" y="591" type="line"/>
      <point x="308" y="364" type="line"/>
      <point x="518" y="364" type="line"/>
    </contour>
  </outline>
</glyph>
<glyph name="comma" format="1">
  <advance width="211"/>
  <unicode hex="002C"/>
  <outline>
    <contour>
      <point x="140" y="91" type="line"/>
      <point x="96" y="-96" type="line"/>
      <point x="64" y="-96" type="line"/>
      <point x="81" y="91" type="line"/>
    </contour>
  </outline>
</glyph>
<glyph name="hyphen" format="1">
  <advance width="317"/>
  <unicode hex="002D"/>
  <unicode hex="2010"/>
  <unicode hex="2011"/>
  <outline>
    <contour>
      <point x="265" y="343" type="line"/>
      <point x="51" y="343" type="line"/>
      <point x="51" y="386" type="line"/>
      <point x="265" y="386" type="line"/>
    </contour>
  </outline>
</glyph>
<glyph name="period" format="1">
  <advance width="211"/>
  <unicode hex="002E"/>
  <outline>
    <contour>
      <point x="143" y="32" type="curve" smooth="yes"/>
      <point x="143" y="11"/>
      <point x="125" y="-6"/>
      <point x="105" y="-6" type="curve" smooth="yes"/>
      <point x="84" y="-6"/>
      <point x="67" y="11"/>
      <point x="67" y="32" type="curve" smooth="yes"/>
      <point x="67" y="53"/>
      <point x="84" y="72"/>
      <point x="105" y="72" type="curve" smooth="yes"/>
      <point x="125" y="72"/>
      <point x="143" y="53"/>
    </contour>
  </outline>
</glyph>
<glyph name="slash" format="1">
  <advance width="414"/>
  <unicode hex="002F"/>
  <outline>
    <contour>
      <point x="376" y="790" type="line"/>
      <point x="82" y="-90" type="line"/>
      <point x="39" y="-90" type="line"/>
      <point x="332" y="790" type="line"/>
    </contour>
  </outline>
</glyph>
<glyph name="zero" format="1">
  <advance width="646"/>
  <unicode hex="0030"/>
  <outline>
    <contour>
      <point x="583" y="350" type="curve" smooth="yes"/>
      <point x="583" y="122"/>
      <point x="479" y="-11"/>
      <point x="323" y="-11" type="curve" smooth="yes"/>
      <point x="168" y="-11"/>
      <point x="64" y="122"/>
      <point x="64" y="350" type="curve" smooth="yes"/>
      <point x="64" y="578"/>
      <point x="168" y="711"/>
      <point x="323" y="711" type="curve" smooth="yes"/>
      <point x="479" y="711"/>
      <point x="583" y="578"/>
    </contour>
    <contour>
      <point x="537" y="350" type="curve" smooth="yes"/>
      <point x="537" y="548"/>
      <point x="458" y="670"/>
      <point x="323" y="670" type="curve" smooth="yes"/>
      <point x="188" y="670"/>
      <point x="109" y="548"/>
      <point x="109" y="350" type="curve" smooth="yes"/>
      <point x="109" y="152"/>
      <point x="188" y="30"/>
      <point x="323" y="30" type="curve" smooth="yes"/>
      <point x="458" y="30"/>
      <point x="537" y="152"/>
    </contour>
  </outline>
</glyph>
<glyph name="one" format="1">
  <advance width="292"/>
  <unicode hex="0031"/>
  <outline>
    <contour>
      <point x="193" y="0" type="line"/>
      <point x="148" y="0" type="line"/>
      <point x="148" y="626" type="line"/>
      <point x="141" y="610"/>
      <point x="84" y="582"/>
      <point x="23" y="582" type="curve"/>
      <point x="23" y="620" type="line"/>
      <point x="86" y="623"/>
      <point x="145" y="649"/>
      <point x="158" y="702" type="curve"/>
      <point x="193" y="702" type="line"/>
    </contour>
  </outline>
</glyph>
<glyph name="two" format="1">
  <advance width="559"/>
  <unicode hex="0032"/>
  <outline>
    <contour>
      <point x="485" y="0" type="line"/>
      <point x="47" y="0" type="line"/>
      <point x="54" y="142"/>
      <point x="122" y="222"/>
      <point x="265" y="323" type="curve" smooth="yes"/>
      <point x="402" y="419"/>
      <point x="432" y="459"/>
      <point x="432" y="534" type="curve" smooth="yes"/>
      <point x="432" y="621"/>
      <point x="371" y="670"/>
      <point x="272" y="670" type="curve" smooth="yes"/>
      <point x="193" y="670"/>
      <point x="139" y="647"/>
      <point x="94" y="613" type="curve"/>
      <point x="70" y="645" type="line"/>
      <point x="122" y="684"/>
      <point x="183" y="711"/>
      <point x="273" y="711" type="curve" smooth="yes"/>
      <point x="392" y="711"/>
      <point x="478" y="654"/>
      <point x="478" y="537" type="curve" smooth="yes"/>
      <point x="478" y="438"/>
      <point x="435" y="393"/>
      <point x="296" y="295" type="curve" smooth="yes"/>
      <point x="149" y="192"/>
      <point x="109" y="127"/>
      <point x="98" y="44" type="curve"/>
      <point x="485" y="44" type="line"/>
    </contour>
  </outline>
</glyph>
<glyph name="three" format="1">
  <advance width="548"/>
  <unicode hex="0033"/>
  <outline>
    <contour>
      <point x="480" y="195" type="curve" smooth="yes"/>
      <point x="480" y="65"/>
      <point x="389" y="-11"/>
      <point x="242" y="-11" type="curve" smooth="yes"/>
      <point x="165" y="-11"/>
      <point x="82" y="24"/>
      <point x="42" y="65" type="curve"/>
      <point x="69" y="98" type="line"/>
      <point x="112" y="59"/>
      <point x="179" y="30"/>
      <point x="244" y="30" type="curve" smooth="yes"/>
      <point x="368" y="30"/>
      <point x="435" y="90"/>
      <point x="435" y="194" type="curve" smooth="yes"/>
      <point x="435" y="302"/>
      <point x="359" y="349"/>
      <point x="251" y="349" type="curve" smooth="yes"/>
      <point x="206" y="349" type="line"/>
      <point x="206" y="388" type="line"/>
      <point x="252" y="388" type="line" smooth="yes"/>
      <point x="353" y="388"/>
      <point x="406" y="443"/>
      <point x="406" y="527" type="curve" smooth="yes"/>
      <point x="406" y="613"/>
      <point x="357" y="670"/>
      <point x="245" y="670" type="curve" smooth="yes"/>
      <point x="178" y="670"/>
      <point x="122" y="641"/>
      <point x="93" y="614" type="curve"/>
      <point x="65" y="643" type="line"/>
      <point x="96" y="674"/>
      <point x="164" y="711"/>
      <point x="247" y="711" type="curve" smooth="yes"/>
      <point x="368" y="711"/>
      <point x="452" y="651"/>
      <point x="452" y="531" type="curve" smooth="yes"/>
      <point x="452" y="425"/>
      <point x="388" y="383"/>
      <point x="331" y="371" type="curve"/>
      <point x="402" y="361"/>
      <point x="480" y="311"/>
    </contour>
  </outline>
</glyph>
<glyph name="four" format="1">
  <advance width="595"/>
  <unicode hex="0034"/>
  <outline>
    <contour>
      <point x="554" y="179" type="line"/>
      <point x="450" y="179" type="line"/>
      <point x="450" y="0" type="line"/>
      <point x="408" y="0" type="line"/>
      <point x="408" y="179" type="line"/>
      <point x="37" y="179" type="line"/>
      <point x="37" y="217" type="line"/>
      <point x="401" y="703" type="line"/>
      <point x="450" y="703" type="line"/>
      <point x="450" y="218" type="line"/>
      <point x="554" y="218" type="line"/>
    </contour>
    <contour>
      <point x="408" y="218" type="line"/>
      <point x="408" y="646" type="line"/>
      <point x="88" y="218" type="line"/>
    </contour>
  </outline>
</glyph>
<glyph name="five" format="1">
  <advance width="589"/>
  <unicode hex="0035"/>
  <outline>
    <contour>
      <point x="529" y="223" type="curve" smooth="yes"/>
      <point x="529" y="69"/>
      <point x="422" y="-11"/>
      <point x="271" y="-11" type="curve" smooth="yes"/>
      <point x="186" y="-11"/>
      <point x="111" y="15"/>
      <point x="67" y="43" type="curve"/>
      <point x="88" y="81" type="line"/>
      <point x="130" y="55"/>
      <point x="199" y="30"/>
      <point x="275" y="30" type="curve" smooth="yes"/>
      <point x="405" y="30"/>
      <point x="483" y="106"/>
      <point x="483" y="220" type="curve" smooth="yes"/>
      <point x="483" y="324"/>
      <point x="424" y="391"/>
      <point x="293" y="391" type="curve" smooth="yes"/>
      <point x="218" y="391"/>
      <point x="165" y="369"/>
      <point x="128" y="336" type="curve"/>
      <point x="82" y="354" type="line"/>
      <point x="108" y="700" type="line"/>
      <point x="493" y="700" type="line"/>
      <point x="493" y="656" type="line"/>
      <point x="147" y="656" type="line"/>
      <point x="127" y="379" type="line"/>
      <point x="162" y="409"/>
      <point x="220" y="432"/>
      <point x="296" y="432" type="curve" smooth="yes"/>
      <point x="457" y="432"/>
      <point x="529" y="348"/>
    </contour>
  </outline>
</glyph>
<glyph name="six" format="1">
  <advance width="610"/>
  <unicode hex="0036"/>
  <outline>
    <contour>
      <point x="561" y="213" type="curve" smooth="yes"/>
      <point x="561" y="75"/>
      <point x="456" y="-11"/>
      <point x="315" y="-11" type="curve" smooth="yes"/>
      <point x="170" y="-11"/>
      <point x="68" y="69"/>
      <point x="68" y="259" type="curve" smooth="yes"/>
      <point x="68" y="447"/>
      <point x="165" y="682"/>
      <point x="451" y="709" type="curve"/>
      <point x="451" y="668" type="line"/>
      <point x="234" y="642"/>
      <point x="135" y="488"/>
      <point x="114" y="311" type="curve"/>
      <point x="144" y="377"/>
      <point x="220" y="426"/>
      <point x="329" y="426" type="curve" smooth="yes"/>
      <point x="459" y="426"/>
      <point x="561" y="357"/>
    </contour>
    <contour>
      <point x="515" y="211" type="curve" smooth="yes"/>
      <point x="515" y="325"/>
      <point x="437" y="385"/>
      <point x="318" y="385" type="curve" smooth="yes"/>
      <point x="197" y="385"/>
      <point x="113" y="311"/>
      <point x="115" y="212" type="curve" smooth="yes"/>
      <point x="118" y="99"/>
      <point x="196" y="30"/>
      <point x="317" y="30" type="curve" smooth="yes"/>
      <point x="440" y="30"/>
      <point x="515" y="108"/>
    </contour>
  </outline>
</glyph>
<glyph name="seven" format="1">
  <advance width="538"/>
  <unicode hex="0037"/>
  <outline>
    <contour>
      <point x="471" y="657" type="line"/>
      <point x="344" y="499"/>
      <point x="229" y="282"/>
      <point x="220" y="0" type="curve"/>
      <point x="173" y="0" type="line"/>
      <point x="183" y="270"/>
      <point x="289" y="488"/>
      <point x="419" y="656" type="curve"/>
      <point x="24" y="656" type="line"/>
      <point x="24" y="700" type="line"/>
      <point x="471" y="700" type="line"/>
    </contour>
  </outline>
</glyph>
<glyph name="eight" format="1">
  <advance width="621"/>
  <unicode hex="0038"/>
  <outline>
    <contour>
      <point x="563" y="190" type="curve" smooth="yes"/>
      <point x="563" y="58"/>
      <point x="461" y="-11"/>
      <point x="310" y="-11" type="curve" smooth="yes"/>
      <point x="159" y="-11"/>
      <point x="58" y="57"/>
      <point x="58" y="189" type="curve" smooth="yes"/>
      <point x="58" y="291"/>
      <point x="125" y="353"/>
      <point x="229" y="372" type="curve"/>
      <point x="151" y="390"/>
      <point x="88" y="439"/>
      <point x="88" y="530" type="curve" smooth="yes"/>
      <point x="88" y="640"/>
      <point x="177" y="711"/>
      <point x="311" y="711" type="curve" smooth="yes"/>
      <point x="446" y="711"/>
      <point x="533" y="641"/>
      <point x="533" y="531" type="curve" smooth="yes"/>
      <point x="533" y="441"/>
      <point x="471" y="392"/>
      <point x="392" y="374" type="curve"/>
      <point x="497" y="354"/>
      <point x="563" y="292"/>
    </contour>
    <contour>
      <point x="487" y="530" type="curve" smooth="yes"/>
      <point x="487" y="611"/>
      <point x="423" y="670"/>
      <point x="310" y="670" type="curve" smooth="yes"/>
      <point x="198" y="670"/>
      <point x="134" y="612"/>
      <point x="134" y="531" type="curve" smooth="yes"/>
      <point x="134" y="445"/>
      <point x="205" y="391"/>
      <point x="311" y="391" type="curve" smooth="yes"/>
      <point x="416" y="391"/>
      <point x="487" y="446"/>
    </contour>
    <contour>
      <point x="518" y="189" type="curve" smooth="yes"/>
      <point x="518" y="288"/>
      <point x="437" y="349"/>
      <point x="310" y="349" type="curve" smooth="yes"/>
      <point x="183" y="349"/>
      <point x="103" y="289"/>
      <point x="103" y="190" type="curve" smooth="yes"/>
      <point x="103" y="90"/>
      <point x="181" y="30"/>
      <point x="311" y="30" type="curve" smooth="yes"/>
      <point x="441" y="30"/>
      <point x="518" y="89"/>
    </contour>
  </outline>
</glyph>
<glyph name="nine" format="1">
  <advance width="610"/>
  <unicode hex="0039"/>
  <outline>
    <contour>
      <point x="542" y="441" type="curve" smooth="yes"/>
      <point x="542" y="253"/>
      <point x="445" y="18"/>
      <point x="159" y="-9" type="curve"/>
      <point x="159" y="32" type="line"/>
      <point x="377" y="58"/>
      <point x="476" y="212"/>
      <point x="495" y="389" type="curve"/>
      <point x="465" y="322"/>
      <point x="391" y="274"/>
      <point x="281" y="274" type="curve" smooth="yes"/>
      <point x="151" y="274"/>
      <point x="49" y="343"/>
      <point x="49" y="487" type="curve" smooth="yes"/>
      <point x="49" y="625"/>
      <point x="154" y="711"/>
      <point x="295" y="711" type="curve" smooth="yes"/>
      <point x="440" y="711"/>
      <point x="542" y="631"/>
    </contour>
    <contour>
      <point x="495" y="488" type="curve" smooth="yes"/>
      <point x="492" y="601"/>
      <point x="414" y="670"/>
      <point x="293" y="670" type="curve" smooth="yes"/>
      <point x="170" y="670"/>
      <point x="95" y="592"/>
      <point x="95" y="489" type="curve" smooth="yes"/>
      <point x="95" y="375"/>
      <point x="173" y="315"/>
      <point x="293" y="315" type="curve" smooth="yes"/>
      <point x="413" y="315"/>
      <point x="497" y="389"/>
    </contour>
  </outline>
</glyph>
<glyph name="colon" format="1">
  <advance width="211"/>
  <unicode hex="003A"/>
  <outline>
    <contour>
      <point x="143" y="491" type="curve" smooth="yes"/>
      <point x="143" y="470"/>
      <point x="125" y="453"/>
      <point x="105" y="453" type="curve" smooth="yes"/>
      <point x="84" y="453"/>
      <point x="67" y="470"/>
      <point x="67" y="491" type="curve" smooth="yes"/>
      <point x="67" y="512"/>
      <point x="84" y="531"/>
      <point x="105" y="531" type="curve" smooth="yes"/>
      <point x="125" y="531"/>
      <point x="143" y="512"/>
    </contour>
    <contour>
      <point x="143" y="32" type="curve" smooth="yes"/>
      <point x="143" y="11"/>
      <point x="125" y="-6"/>
      <point x="105" y="-6" type="curve" smooth="yes"/>
      <point x="84" y="-6"/>
      <point x="67" y="11"/>
      <point x="67" y="32" type="curve" smooth="yes"/>
      <point x="67" y="53"/>
      <point x="84" y="72"/>
      <point x="105" y="72" type="curve" smooth="yes"/>
      <point x="125" y="72"/>
      <point x="143" y="53"/>
    </contour>
  </outline>
</glyph>
<glyph name="semicolon" format="1">
  <advance width="211"/>
  <unicode hex="003B"/>
  <outline>
    <contour>
      <point x="143" y="491" type="curve" smooth="yes"/>
      <point x="143" y="470"/>
      <point x="125" y="453"/>
      <point x="105" y="453" type="curve" smooth="yes"/>
      <point x="84" y="453"/>
      <point x="67" y="470"/>
      <point x="67" y="491" type="curve" smooth="yes"/>
      <point x="67" y="512"/>
      <point x="84" y="531"/>
      <point x="105" y="531" type="curve" smooth="yes"/>
      <point x="125" y="531"/>
      <point x="143" y="512"/>
    </contour>
    <contour>
      <point x="133" y="91" type="line"/>
      <point x="88" y="-96" type="line"/>
      <point x="57" y="-96" type="line"/>
      <point x="73" y="91" type="line"/>
    </contour>
  </outline>
</glyph>
<glyph name="less" format="1">
  <advance width="385"/>
  <unicode hex="003C"/>
  <outline>
    <contour>
      <point x="313" y="63" type="line"/>
      <point x="55" y="324" type="line"/>
      <point x="55" y="364" type="line"/>
      <point x="313" y="625" type="line"/>
      <point x="313" y="569" type="line"/>
      <point x="90" y="345" type="line"/>
      <point x="313" y="120" type="line"/>
    </contour>
  </outline>
</glyph>
<glyph name="equal" format="1">
  <advance width="579"/>
  <unicode hex="003D"/>
  <outline>
    <contour>
      <point x="495" y="428" type="line"/>
      <point x="84" y="428" type="line"/>
      <point x="84" y="469" type="line"/>
      <point x="495" y="469" type="line"/>
    </contour>
    <contour>
      <point x="495" y="219" type="line"/>
      <point x="84" y="219" type="line"/>
      <point x="84" y="260" type="line"/>
      <point x="495" y="260" type="line"/>
    </contour>
  </outline>
</glyph>
<glyph name="greater" format="1">
  <advance width="385"/>
  <unicode hex="003E"/>
  <outline>
    <contour>
      <point x="330" y="324" type="line"/>
      <point x="72" y="63" type="line"/>
      <point x="72" y="120" type="line"/>
      <point x="295" y="343" type="line"/>
      <point x="72" y="568" type="line"/>
      <point x="72" y="625" type="line"/>
      <point x="330" y="364" type="line"/>
    </contour>
  </outline>
</glyph>
<glyph name="question" format="1">
  <advance width="557"/>
  <unicode hex="003F"/>
  <outline>
    <contour>
      <point x="478" y="546" type="curve" smooth="yes"/>
      <point x="478" y="456"/>
      <point x="438" y="422"/>
      <point x="357" y="361" type="curve" smooth="yes"/>
      <point x="288" y="309"/>
      <point x="275" y="284"/>
      <point x="275" y="163" type="curve"/>
      <point x="229" y="163" type="line"/>
      <point x="229" y="301"/>
      <point x="246" y="329"/>
      <point x="335" y="395" type="curve" smooth="yes"/>
      <point x="404" y="446"/>
      <point x="432" y="476"/>
      <point x="432" y="543" type="curve" smooth="yes"/>
      <point x="432" y="618"/>
      <point x="369" y="669"/>
      <point x="274" y="669" type="curve" smooth="yes"/>
      <point x="193" y="669"/>
      <point x="135" y="640"/>
      <point x="83" y="596" type="curve"/>
      <point x="57" y="629" type="line"/>
      <point x="109" y="675"/>
      <point x="178" y="711"/>
      <point x="276" y="711" type="curve" smooth="yes"/>
      <point x="396" y="711"/>
      <point x="478" y="651"/>
    </contour>
    <contour>
      <point x="289" y="31" type="curve" smooth="yes"/>
      <point x="289" y="11"/>
      <point x="271" y="-6"/>
      <point x="252" y="-6" type="curve" smooth="yes"/>
      <point x="232" y="-6"/>
      <point x="215" y="11"/>
      <point x="215" y="31" type="curve" smooth="yes"/>
      <point x="215" y="51"/>
      <point x="232" y="69"/>
      <point x="252" y="69" type="curve" smooth="yes"/>
      <point x="271" y="69"/>
      <point x="289" y="51"/>
    </contour>
  </outline>
</glyph>
<glyph name="at" format="1">
  <advance width="836"/>
  <unicode hex="0040"/>
  <outline>
    <contour>
      <point x="779" y="360" type="curve" smooth="yes"/>
      <point x="779" y="210"/>
      <point x="717" y="152"/>
      <point x="633" y="152" type="curve" smooth="yes"/>
      <point x="583" y="152"/>
      <point x="545" y="180"/>
      <point x="532" y="225" type="curve"/>
      <point x="501" y="180"/>
      <point x="452" y="152"/>
      <point x="394" y="152" type="curve" smooth="yes"/>
      <point x="316" y="152"/>
      <point x="248" y="190"/>
      <point x="248" y="280" type="curve" smooth="yes"/>
      <point x="248" y="365"/>
      <point x="317" y="411"/>
      <point x="403" y="411" type="curve" smooth="yes"/>
      <point x="456" y="411"/>
      <point x="496" y="397"/>
      <point x="526" y="379" type="curve"/>
      <point x="526" y="444" type="line" smooth="yes"/>
      <point x="526" y="510"/>
      <point x="491" y="535"/>
      <point x="413" y="535" type="curve" smooth="yes"/>
      <point x="371" y="535"/>
      <point x="337" y="524"/>
      <point x="303" y="508" type="curve"/>
      <point x="291" y="536" type="line"/>
      <point x="327" y="553"/>
      <point x="368" y="566"/>
      <point x="417" y="566" type="curve" smooth="yes"/>
      <point x="505" y="566"/>
      <point x="557" y="536"/>
      <point x="557" y="446" type="curve" smooth="yes"/>
      <point x="557" y="261" type="line" smooth="yes"/>
      <point x="557" y="211"/>
      <point x="583" y="179"/>
      <point x="637" y="179" type="curve" smooth="yes"/>
      <point x="700" y="179"/>
      <point x="749" y="229"/>
      <point x="749" y="359" type="curve" smooth="yes"/>
      <point x="749" y="544"/>
      <point x="611" y="683"/>
      <point x="418" y="683" type="curve" smooth="yes"/>
      <point x="226" y="683"/>
      <point x="87" y="547"/>
      <point x="87" y="351" type="curve" smooth="yes"/>
      <point x="87" y="154"/>
      <point x="226" y="17"/>
      <point x="418" y="17" type="curve" smooth="yes"/>
      <point x="473" y="17"/>
      <point x="514" y="26"/>
      <point x="562" y="49" type="curve"/>
      <point x="572" y="23" type="line"/>
      <point x="515" y="-3"/>
      <point x="475" y="-11"/>
      <point x="418" y="-11" type="curve" smooth="yes"/>
      <point x="209" y="-11"/>
      <point x="57" y="141"/>
      <point x="57" y="350" type="curve" smooth="yes"/>
      <point x="57" y="559"/>
      <point x="209" y="711"/>
      <point x="418" y="711" type="curve" smooth="yes"/>
      <point x="631" y="711"/>
      <point x="779" y="550"/>
    </contour>
    <contour>
      <point x="526" y="256" type="curve"/>
      <point x="526" y="349" type="line"/>
      <point x="496" y="366"/>
      <point x="454" y="382"/>
      <point x="400" y="382" type="curve" smooth="yes"/>
      <point x="333" y="382"/>
      <point x="281" y="345"/>
      <point x="281" y="282" type="curve" smooth="yes"/>
      <point x="281" y="213"/>
      <point x="328" y="183"/>
      <point x="397" y="183" type="curve" smooth="yes"/>
      <point x="450" y="183"/>
      <point x="498" y="213"/>
    </contour>
  </outline>
</glyph>
<glyph name="A" format="1">
  <advance width="664"/>
  <unicode hex="0041"/>
  <outline>
    <contour>
      <point x="602" y="0" type="line"/>
      <point x="554" y="0" type="line"/>
      <point x="487" y="193" type="line"/>
      <point x="176" y="193" type="line"/>
      <point x="109" y="0" type="line"/>
      <point x="62" y="0" type="line"/>
      <point x="307" y="702" type="line"/>
      <point x="357" y="702" type="line"/>
    </contour>
    <contour>
      <point x="473" y="235" type="line"/>
      <point x="332" y="646" type="line"/>
      <point x="190" y="235" type="line"/>
    </contour>
  </outline>
</glyph>
<glyph name="B" format="1">
  <advance width="607"/>
  <unicode hex="0042"/>
  <outline>
    <contour>
      <point x="547" y="203" type="curve" smooth="yes"/>
      <point x="547" y="69"/>
      <point x="464" y="0"/>
      <point x="322" y="0" type="curve" smooth="yes"/>
      <point x="96" y="0" type="line"/>
      <point x="96" y="700" type="line"/>
      <point x="321" y="700" type="line" smooth="yes"/>
      <point x="423" y="700"/>
      <point x="508" y="652"/>
      <point x="508" y="534" type="curve" smooth="yes"/>
      <point x="508" y="441"/>
      <point x="453" y="395"/>
      <point x="395" y="382" type="curve"/>
      <point x="464" y="371"/>
      <point x="547" y="319"/>
    </contour>
    <contour>
      <point x="462" y="532" type="curve" smooth="yes"/>
      <point x="462" y="618"/>
      <point x="402" y="658"/>
      <point x="319" y="658" type="curve" smooth="yes"/>
      <point x="141" y="658" type="line"/>
      <point x="141" y="399" type="line"/>
      <point x="317" y="399" type="line" smooth="yes"/>
      <point x="409" y="399"/>
      <point x="462" y="450"/>
    </contour>
    <contour>
      <point x="501" y="201" type="curve" smooth="yes"/>
      <point x="501" y="301"/>
      <point x="426" y="358"/>
      <point x="320" y="358" type="curve" smooth="yes"/>
      <point x="141" y="358" type="line"/>
      <point x="141" y="42" type="line"/>
      <point x="325" y="42" type="line" smooth="yes"/>
      <point x="442" y="42"/>
      <point x="501" y="101"/>
    </contour>
  </outline>
</glyph>
<glyph name="C" format="1">
  <advance width="619"/>
  <unicode hex="0043"/>
  <outline>
    <contour>
      <point x="559" y="85" type="line"/>
      <point x="509" y="26"/>
      <point x="437" y="-11"/>
      <point x="351" y="-11" type="curve" smooth="yes"/>
      <point x="183" y="-11"/>
      <point x="69" y="137"/>
      <point x="69" y="349" type="curve" smooth="yes"/>
      <point x="69" y="564"/>
      <point x="186" y="711"/>
      <point x="353" y="711" type="curve" smooth="yes"/>
      <point x="441" y="711"/>
      <point x="503" y="681"/>
      <point x="552" y="622" type="curve"/>
      <point x="521" y="590" type="line"/>
      <point x="476" y="644"/>
      <point x="428" y="669"/>
      <point x="352" y="669" type="curve" smooth="yes"/>
      <point x="214" y="669"/>
      <point x="115" y="542"/>
      <point x="115" y="351" type="curve" smooth="yes"/>
      <point x="115" y="158"/>
      <point x="216" y="31"/>
      <point x="352" y="31" type="curve" smooth="yes"/>
      <point x="423" y="31"/>
      <point x="478" y="59"/>
      <point x="529" y="116" type="curve"/>
    </contour>
  </outline>
</glyph>
<glyph name="D" format="1">
  <advance width="661"/>
  <unicode hex="0044"/>
  <outline>
    <contour>
      <point x="592" y="353" type="curve" smooth="yes"/>
      <point x="592" y="103"/>
      <point x="461" y="0"/>
      <point x="270" y="0" type="curve" smooth="yes"/>
      <point x="96" y="0" type="line"/>
      <point x="96" y="700" type="line"/>
      <point x="278" y="700" type="line" smooth="yes"/>
      <point x="468" y="700"/>
      <point x="592" y="594"/>
    </contour>
    <contour>
      <point x="546" y="351" type="curve" smooth="yes"/>
      <point x="546" y="556"/>
      <point x="451" y="658"/>
      <point x="274" y="658" type="curve" smooth="yes"/>
      <point x="142" y="658" type="line"/>
      <point x="142" y="42" type="line"/>
      <point x="276" y="42" type="line" smooth="yes"/>
      <point x="446" y="42"/>
      <point x="546" y="132"/>
    </contour>
  </outline>
</glyph>
<glyph name="E" format="1">
  <advance width="555"/>
  <unicode hex="0045"/>
  <outline>
    <contour>
      <point x="507" y="0" type="line"/>
      <point x="96" y="0" type="line"/>
      <point x="96" y="700" type="line"/>
      <point x="492" y="700" type="line"/>
      <point x="492" y="658" type="line"/>
      <point x="142" y="658" type="line"/>
      <point x="142" y="394" type="line"/>
      <point x="354" y="394" type="line"/>
      <point x="354" y="352" type="line"/>
      <point x="142" y="352" type="line"/>
      <point x="142" y="42" type="line"/>
      <point x="507" y="42" type="line"/>
    </contour>
  </outline>
</glyph>
<glyph name="F" format="1">
  <advance width="523"/>
  <unicode hex="0046"/>
  <outline>
    <contour>
      <point x="481" y="658" type="line"/>
      <point x="142" y="658" type="line"/>
      <point x="142" y="382" type="line"/>
      <point x="346" y="382" type="line"/>
      <point x="346" y="340" type="line"/>
      <point x="142" y="340" type="line"/>
      <point x="142" y="0" type="line"/>
      <point x="96" y="0" type="line"/>
      <point x="96" y="700" type="line"/>
      <point x="481" y="700" type="line"/>
    </contour>
  </outline>
</glyph>
<glyph name="G" format="1">
  <advance width="662"/>
  <unicode hex="0047"/>
  <outline>
    <contour>
      <point x="599" y="278" type="line" smooth="yes"/>
      <point x="599" y="88"/>
      <point x="499" y="-11"/>
      <point x="351" y="-11" type="curve" smooth="yes"/>
      <point x="183" y="-11"/>
      <point x="69" y="137"/>
      <point x="69" y="349" type="curve" smooth="yes"/>
      <point x="69" y="563"/>
      <point x="186" y="711"/>
      <point x="353" y="711" type="curve" smooth="yes"/>
      <point x="447" y="711"/>
      <point x="517" y="676"/>
      <point x="561" y="616" type="curve"/>
      <point x="526" y="586" type="line"/>
      <point x="482" y="642"/>
      <point x="433" y="669"/>
      <point x="352" y="669" type="curve" smooth="yes"/>
      <point x="213" y="669"/>
      <point x="115" y="541"/>
      <point x="115" y="351" type="curve" smooth="yes"/>
      <point x="115" y="158"/>
      <point x="216" y="31"/>
      <point x="352" y="31" type="curve" smooth="yes"/>
      <point x="481" y="31"/>
      <point x="554" y="115"/>
      <point x="554" y="272" type="curve" smooth="yes"/>
      <point x="554" y="285" type="line"/>
      <point x="402" y="285" type="line"/>
      <point x="402" y="327" type="line"/>
      <point x="599" y="327" type="line"/>
    </contour>
  </outline>
</glyph>
<glyph name="H" format="1">
  <advance width="674"/>
  <unicode hex="0048"/>
  <outline>
    <contour>
      <point x="578" y="0" type="line"/>
      <point x="532" y="0" type="line"/>
      <point x="532" y="344" type="line"/>
      <point x="142" y="344" type="line"/>
      <point x="142" y="0" type="line"/>
      <point x="96" y="0" type="line"/>
      <point x="96" y="700" type="line"/>
      <point x="142" y="700" type="line"/>
      <point x="142" y="386" type="line"/>
      <point x="532" y="386" type="line"/>
      <point x="532" y="700" type="line"/>
      <point x="578" y="700" type="line"/>
    </contour>
  </outline>
</glyph>
<glyph name="I" format="1">
  <advance width="249"/>
  <unicode hex="0049"/>
  <outline>
    <contour>
      <point x="147" y="0" type="line"/>
      <point x="101" y="0" type="line"/>
      <point x="101" y="700" type="line"/>
      <point x="147" y="700" type="line"/>
    </contour>
  </outline>
</glyph>
<glyph name="J" format="1">
  <advance width="560"/>
  <unicode hex="004A"/>
  <outline>
    <contour>
      <point x="469" y="238" type="line" smooth="yes"/>
      <point x="469" y="69"/>
      <point x="392" y="-11"/>
      <point x="249" y="-11" type="curve" smooth="yes"/>
      <point x="141" y="-11"/>
      <point x="75" y="40"/>
      <point x="40" y="135" type="curve"/>
      <point x="82" y="153" type="line"/>
      <point x="114" y="75"/>
      <point x="162" y="31"/>
      <point x="251" y="31" type="curve" smooth="yes"/>
      <point x="365" y="31"/>
      <point x="423" y="96"/>
      <point x="423" y="239" type="curve" smooth="yes"/>
      <point x="423" y="700" type="line"/>
      <point x="469" y="700" type="line"/>
    </contour>
  </outline>
</glyph>
<glyph name="K" format="1">
  <advance width="616"/>
  <unicode hex="004B"/>
  <outline>
    <contour>
      <point x="290" y="383" type="line"/>
      <point x="142" y="194" type="line"/>
      <point x="142" y="0" type="line"/>
      <point x="96" y="0" type="line"/>
      <point x="96" y="700" type="line"/>
      <point x="142" y="700" type="line"/>
      <point x="142" y="258" type="line"/>
      <point x="486" y="700" type="line"/>
      <point x="538" y="700" type="line"/>
      <point x="321" y="422" type="line"/>
      <point x="571" y="0" type="line"/>
      <point x="519" y="0" type="line"/>
    </contour>
  </outline>
</glyph>
<glyph name="L" format="1">
  <advance width="539"/>
  <unicode hex="004C"/>
  <outline>
    <contour>
      <point x="488" y="0" type="line"/>
      <point x="96" y="0" type="line"/>
      <point x="96" y="700" type="line"/>
      <point x="142" y="700" type="line"/>
      <point x="142" y="42" type="line"/>
      <point x="488" y="42" type="line"/>
    </contour>
  </outline>
</glyph>
<glyph name="M" format="1">
  <advance width="790"/>
  <unicode hex="004D"/>
  <outline>
    <contour>
      <point x="693" y="0" type="line"/>
      <point x="649" y="0" type="line"/>
      <point x="649" y="602" type="line"/>
      <point x="394" y="-12" type="line"/>
      <point x="393" y="-12" type="line"/>
      <point x="141" y="602" type="line"/>
      <point x="141" y="0" type="line"/>
      <point x="96" y="0" type="line"/>
      <point x="96" y="700" type="line"/>
      <point x="148" y="700" type="line"/>
      <point x="395" y="95" type="line"/>
      <point x="642" y="700" type="line"/>
      <point x="693" y="700" type="line"/>
    </contour>
  </outline>
</glyph>
<glyph name="N" format="1">
  <advance width="671"/>
  <unicode hex="004E"/>
  <outline>
    <contour>
      <point x="574" y="0" type="line"/>
      <point x="533" y="0" type="line"/>
      <point x="141" y="621" type="line"/>
      <point x="141" y="0" type="line"/>
      <point x="96" y="0" type="line"/>
      <point x="96" y="700" type="line"/>
      <point x="141" y="700" type="line"/>
      <point x="530" y="83" type="line"/>
      <point x="530" y="700" type="line"/>
      <point x="574" y="700" type="line"/>
    </contour>
  </outline>
</glyph>
<glyph name="O" format="1">
  <advance width="714"/>
  <unicode hex="004F"/>
  <outline>
    <contour>
      <point x="645" y="352" type="curve" smooth="yes"/>
      <point x="645" y="133"/>
      <point x="525" y="-11"/>
      <point x="356" y="-11" type="curve" smooth="yes"/>
      <point x="187" y="-11"/>
      <point x="69" y="131"/>
      <point x="69" y="350" type="curve" smooth="yes"/>
      <point x="69" y="569"/>
      <point x="189" y="711"/>
      <point x="358" y="711" type="curve" smooth="yes"/>
      <point x="527" y="711"/>
      <point x="645" y="571"/>
    </contour>
    <contour>
      <point x="599" y="350" type="curve" smooth="yes"/>
      <point x="599" y="548"/>
      <point x="494" y="669"/>
      <point x="356" y="669" type="curve" smooth="yes"/>
      <point x="218" y="669"/>
      <point x="115" y="550"/>
      <point x="115" y="352" type="curve" smooth="yes"/>
      <point x="115" y="154"/>
      <point x="219" y="31"/>
      <point x="358" y="31" type="curve" smooth="yes"/>
      <point x="497" y="31"/>
      <point x="599" y="152"/>
    </contour>
  </outline>
</glyph>
<glyph name="P" format="1">
  <advance width="594"/>
  <unicode hex="0050"/>
  <outline>
    <contour>
      <point x="549" y="500" type="curve" smooth="yes"/>
      <point x="549" y="363"/>
      <point x="458" y="291"/>
      <point x="311" y="291" type="curve" smooth="yes"/>
      <point x="142" y="291" type="line"/>
      <point x="142" y="0" type="line"/>
      <point x="96" y="0" type="line"/>
      <point x="96" y="700" type="line"/>
      <point x="325" y="700" type="line" smooth="yes"/>
      <point x="457" y="700"/>
      <point x="549" y="641"/>
    </contour>
    <contour>
      <point x="502" y="498" type="curve" smooth="yes"/>
      <point x="502" y="609"/>
      <point x="437" y="658"/>
      <point x="323" y="658" type="curve" smooth="yes"/>
      <point x="142" y="658" type="line"/>
      <point x="142" y="333" type="line"/>
      <point x="311" y="333" type="line" smooth="yes"/>
      <point x="438" y="333"/>
      <point x="502" y="388"/>
    </contour>
  </outline>
</glyph>
<glyph name="Q" format="1">
  <advance width="715"/>
  <unicode hex="0051"/>
  <outline>
    <contour>
      <point x="646" y="351" type="curve" smooth="yes"/>
      <point x="646" y="211"/>
      <point x="596" y="102"/>
      <point x="516" y="42" type="curve"/>
      <point x="557" y="-23" type="line"/>
      <point x="520" y="-45" type="line"/>
      <point x="479" y="19" type="line"/>
      <point x="443" y="0"/>
      <point x="402" y="-11"/>
      <point x="357" y="-11" type="curve" smooth="yes"/>
      <point x="187" y="-11"/>
      <point x="69" y="130"/>
      <point x="69" y="349" type="curve" smooth="yes"/>
      <point x="69" y="569"/>
      <point x="189" y="711"/>
      <point x="358" y="711" type="curve" smooth="yes"/>
      <point x="527" y="711"/>
      <point x="646" y="570"/>
    </contour>
    <contour>
      <point x="600" y="349" type="curve" smooth="yes"/>
      <point x="600" y="547"/>
      <point x="495" y="669"/>
      <point x="356" y="669" type="curve" smooth="yes"/>
      <point x="218" y="669"/>
      <point x="115" y="549"/>
      <point x="115" y="351" type="curve" smooth="yes"/>
      <point x="115" y="153"/>
      <point x="219" y="31"/>
      <point x="358" y="31" type="curve" smooth="yes"/>
      <point x="394" y="31"/>
      <point x="428" y="39"/>
      <point x="457" y="55" type="curve"/>
      <point x="393" y="158" type="line"/>
      <point x="430" y="181" type="line"/>
      <point x="494" y="78" type="line"/>
      <point x="559" y="130"/>
      <point x="600" y="222"/>
    </contour>
  </outline>
</glyph>
<glyph name="R" format="1">
  <advance width="623"/>
  <unicode hex="0052"/>
  <outline>
    <contour>
      <point x="555" y="509" type="curve" smooth="yes"/>
      <point x="555" y="398"/>
      <point x="489" y="335"/>
      <point x="382" y="317" type="curve"/>
      <point x="543" y="0" type="line"/>
      <point x="490" y="0" type="line"/>
      <point x="333" y="311" type="line"/>
      <point x="142" y="311" type="line"/>
      <point x="142" y="0" type="line"/>
      <point x="96" y="0" type="line"/>
      <point x="96" y="700" type="line"/>
      <point x="330" y="700" type="line" smooth="yes"/>
      <point x="460" y="700"/>
      <point x="555" y="647"/>
    </contour>
    <contour>
      <point x="509" y="508" type="curve" smooth="yes"/>
      <point x="509" y="616"/>
      <point x="441" y="658"/>
      <point x="328" y="658" type="curve" smooth="yes"/>
      <point x="142" y="658" type="line"/>
      <point x="142" y="353" type="line"/>
      <point x="316" y="353" type="line" smooth="yes"/>
      <point x="442" y="353"/>
      <point x="509" y="401"/>
    </contour>
  </outline>
</glyph>
<glyph name="S" format="1">
  <advance width="576"/>
  <unicode hex="0053"/>
  <outline>
    <contour>
      <point x="501" y="176" type="curve" smooth="yes"/>
      <point x="501" y="61"/>
      <point x="410" y="-11"/>
      <point x="283" y="-11" type="curve" smooth="yes"/>
      <point x="192" y="-11"/>
      <point x="116" y="22"/>
      <point x="58" y="73" type="curve"/>
      <point x="89" y="107" type="line"/>
      <point x="146" y="59"/>
      <point x="207" y="31"/>
      <point x="285" y="31" type="curve" smooth="yes"/>
      <point x="380" y="31"/>
      <point x="455" y="80"/>
      <point x="455" y="174" type="curve" smooth="yes"/>
      <point x="455" y="251"/>
      <point x="411" y="291"/>
      <point x="272" y="342" type="curve" smooth="yes"/>
      <point x="121" y="398"/>
      <point x="75" y="442"/>
      <point x="75" y="538" type="curve" smooth="yes"/>
      <point x="75" y="638"/>
      <point x="153" y="711"/>
      <point x="284" y="711" type="curve" smooth="yes"/>
      <point x="377" y="711"/>
      <point x="433" y="684"/>
      <point x="488" y="644" type="curve"/>
      <point x="458" y="608" type="line"/>
      <point x="408" y="646"/>
      <point x="359" y="669"/>
      <point x="281" y="669" type="curve" smooth="yes"/>
      <point x="171" y="669"/>
      <point x="121" y="608"/>
      <point x="121" y="541" type="curve" smooth="yes"/>
      <point x="121" y="470"/>
      <point x="153" y="436"/>
      <point x="297" y="383" type="curve" smooth="yes"/>
      <point x="452" y="326"/>
      <point x="501" y="277"/>
    </contour>
  </outline>
</glyph>
<glyph name="T" format="1">
  <advance width="574"/>
  <unicode hex="0054"/>
  <outline>
    <contour>
      <point x="526" y="658" type="line"/>
      <point x="309" y="658" type="line"/>
      <point x="309" y="0" type="line"/>
      <point x="263" y="0" type="line"/>
      <point x="263" y="658" type="line"/>
      <point x="46" y="658" type="line"/>
      <point x="46" y="700" type="line"/>
      <point x="526" y="700" type="line"/>
    </contour>
  </outline>
</glyph>
<glyph name="U" format="1">
  <advance width="667"/>
  <unicode hex="0055"/>
  <outline>
    <contour>
      <point x="576" y="270" type="line" smooth="yes"/>
      <point x="576" y="82"/>
      <point x="494" y="-11"/>
      <point x="334" y="-11" type="curve" smooth="yes"/>
      <point x="175" y="-11"/>
      <point x="91" y="81"/>
      <point x="91" y="269" type="curve" smooth="yes"/>
      <point x="91" y="700" type="line"/>
      <point x="137" y="700" type="line"/>
      <point x="137" y="270" type="line" smooth="yes"/>
      <point x="137" y="108"/>
      <point x="204" y="31"/>
      <point x="336" y="31" type="curve" smooth="yes"/>
      <point x="468" y="31"/>
      <point x="530" y="107"/>
      <point x="530" y="269" type="curve" smooth="yes"/>
      <point x="530" y="700" type="line"/>
      <point x="576" y="700" type="line"/>
    </contour>
  </outline>
</glyph>
<glyph name="V" format="1">
  <advance width="658"/>
  <unicode hex="0056"/>
  <outline>
    <contour>
      <point x="596" y="700" type="line"/>
      <point x="355" y="-2" type="line"/>
      <point x="304" y="-2" type="line"/>
      <point x="62" y="700" type="line"/>
      <point x="110" y="700" type="line"/>
      <point x="329" y="51" type="line"/>
      <point x="549" y="700" type="line"/>
    </contour>
  </outline>
</glyph>
<glyph name="W" format="1">
  <advance width="875"/>
  <unicode hex="0057"/>
  <outline>
    <contour>
      <point x="809" y="700" type="line"/>
      <point x="659" y="-2" type="line"/>
      <point x="605" y="-2" type="line"/>
      <point x="437" y="635" type="line"/>
      <point x="269" y="-2" type="line"/>
      <point x="216" y="-2" type="line"/>
      <point x="67" y="700" type="line"/>
      <point x="113" y="700" type="line"/>
      <point x="243" y="60" type="line"/>
      <point x="411" y="700" type="line"/>
      <point x="465" y="700" type="line"/>
      <point x="633" y="60" type="line"/>
      <point x="764" y="700" type="line"/>
    </contour>
  </outline>
</glyph>
<glyph name="X" format="1">
  <advance width="613"/>
  <unicode hex="0058"/>
  <outline>
    <contour>
      <point x="553" y="0" type="line"/>
      <point x="501" y="0" type="line"/>
      <point x="306" y="324" type="line"/>
      <point x="110" y="0" type="line"/>
      <point x="60" y="0" type="line"/>
      <point x="282" y="365" type="line"/>
      <point x="79" y="700" type="line"/>
      <point x="131" y="700" type="line"/>
      <point x="307" y="407" type="line"/>
      <point x="484" y="700" type="line"/>
      <point x="534" y="700" type="line"/>
      <point x="331" y="366" type="line"/>
    </contour>
  </outline>
</glyph>
<glyph name="Y" format="1">
  <advance width="633"/>
  <unicode hex="0059"/>
  <outline>
    <contour>
      <point x="578" y="700" type="line"/>
      <point x="339" y="288" type="line"/>
      <point x="339" y="0" type="line"/>
      <point x="293" y="0" type="line"/>
      <point x="293" y="287" type="line"/>
      <point x="55" y="700" type="line"/>
      <point x="107" y="700" type="line"/>
      <point x="317" y="334" type="line"/>
      <point x="527" y="700" type="line"/>
    </contour>
  </outline>
</glyph>
<glyph name="Z" format="1">
  <advance width="606"/>
  <unicode hex="005A"/>
  <outline>
    <contour>
      <point x="535" y="0" type="line"/>
      <point x="61" y="0" type="line"/>
      <point x="61" y="40" type="line"/>
      <point x="483" y="660" type="line"/>
      <point x="81" y="660" type="line"/>
      <point x="81" y="700" type="line"/>
      <point x="535" y="700" type="line"/>
      <point x="535" y="660" type="line"/>
      <point x="113" y="40" type="line"/>
      <point x="535" y="40" type="line"/>
    </contour>
  </outline>
</glyph>
<glyph name="bracketleft" format="1">
  <advance width="334"/>
  <unicode hex="005B"/>
  <outline>
    <contour>
      <point x="269" y="-110" type="line"/>
      <point x="100" y="-110" type="line"/>
      <point x="100" y="700" type="line"/>
      <point x="269" y="700" type="line"/>
      <point x="269" y="664" type="line"/>
      <point x="143" y="664" type="line"/>
      <point x="143" y="-74" type="line"/>
      <point x="269" y="-74" type="line"/>
    </contour>
  </outline>
</glyph>
<glyph name="backslash" format="1">
  <advance width="414"/>
  <unicode hex="005C"/>
  <outline>
    <contour>
      <point x="376" y="-90" type="line"/>
      <point x="332" y="-90" type="line"/>
      <point x="39" y="790" type="line"/>
      <point x="82" y="790" type="line"/>
    </contour>
  </outline>
</glyph>
<glyph name="bracketright" format="1">
  <advance width="334"/>
  <unicode hex="005D"/>
  <outline>
    <contour>
      <point x="234" y="-110" type="line"/>
      <point x="65" y="-110" type="line"/>
      <point x="65" y="-74" type="line"/>
      <point x="191" y="-74" type="line"/>
      <point x="191" y="664" type="line"/>
      <point x="65" y="664" type="line"/>
      <point x="65" y="700" type="line"/>
      <point x="234" y="700" type="line"/>
    </contour>
  </outline>
</glyph>
<glyph name="asciicircum" format="1">
  <advance width="550"/>
  <unicode hex="005E"/>
  <outline>
    <contour>
      <point x="494" y="382" type="line"/>
      <point x="443" y="382" type="line"/>
      <point x="275" y="652" type="line"/>
      <point x="106" y="382" type="line"/>
      <point x="57" y="382" type="line"/>
      <point x="258" y="700" type="line"/>
      <point x="292" y="700" type="line"/>
    </contour>
  </outline>
</glyph>
<glyph name="underscore" format="1">
  <advance width="500"/>
  <unicode hex="005F"/>
  <outline>
    <contour>
      <point x="500" y="-133" type="line"/>
      <point x="0" y="-133" type="line"/>
      <point x="0" y="-96" type="line"/>
      <point x="500" y="-96" type="line"/>
    </contour>
  </outline>
</glyph>
<glyph name="grave" format="1">
  <advance width="500"/>
  <unicode hex="0060"/>
  <outline>
    <contour>
      <point x="312" y="595" type="line"/>
      <point x="276" y="595" type="line"/>
      <point x="146" y="742" type="line"/>
      <point x="209" y="742" type="line"/>
    </contour>
  </outline>
</glyph>
<glyph name="a" format="1">
  <advance width="532"/>
  <unicode hex="0061"/>
  <outline>
    <contour>
      <point x="450" y="0" type="line"/>
      <point x="406" y="0" type="line"/>
      <point x="406" y="79" type="line"/>
      <point x="366" y="28"/>
      <point x="305" y="-11"/>
      <point x="228" y="-11" type="curve" smooth="yes"/>
      <point x="142" y="-11"/>
      <point x="54" y="28"/>
      <point x="54" y="151" type="curve" smooth="yes"/>
      <point x="54" y="267"/>
      <point x="147" y="320"/>
      <point x="251" y="320" type="curve" smooth="yes"/>
      <point x="315" y="320"/>
      <point x="369" y="302"/>
      <point x="406" y="281" type="curve"/>
      <point x="406" y="359" type="line" smooth="yes"/>
      <point x="406" y="459"/>
      <point x="362" y="499"/>
      <point x="269" y="499" type="curve" smooth="yes"/>
      <point x="209" y="499"/>
      <point x="163" y="482"/>
      <point x="118" y="458" type="curve"/>
      <point x="102" y="494" type="line"/>
      <point x="148" y="518"/>
      <point x="204" y="536"/>
      <point x="272" y="536" type="curve" smooth="yes"/>
      <point x="386" y="536"/>
      <point x="450" y="490"/>
      <point x="450" y="364" type="curve" smooth="yes"/>
    </contour>
    <contour>
      <point x="406" y="123" type="curve"/>
      <point x="406" y="245" type="line"/>
      <point x="366" y="268"/>
      <point x="318" y="284"/>
      <point x="249" y="284" type="curve" smooth="yes"/>
      <point x="161" y="284"/>
      <point x="97" y="239"/>
      <point x="97" y="153" type="curve" smooth="yes"/>
      <point x="97" y="60"/>
      <point x="161" y="25"/>
      <point x="235" y="25" type="curve" smooth="yes"/>
      <point x="309" y="25"/>
      <point x="368" y="66"/>
    </contour>
  </outline>
</glyph>
<glyph name="b" format="1">
  <advance width="553"/>
  <unicode hex="0062"/>
  <outline>
    <contour>
      <point x="496" y="268" type="curve" smooth="yes"/>
      <point x="496" y="78"/>
      <point x="412" y="-11"/>
      <point x="297" y="-11" type="curve" smooth="yes"/>
      <point x="226" y="-11"/>
      <point x="169" y="24"/>
      <point x="130" y="77" type="curve"/>
      <point x="130" y="0" type="line"/>
      <point x="86" y="0" type="line"/>
      <point x="86" y="704" type="line"/>
      <point x="130" y="729" type="line"/>
      <point x="130" y="446" type="line"/>
      <point x="169" y="498"/>
      <point x="229" y="536"/>
      <point x="303" y="536" type="curve" smooth="yes"/>
      <point x="415" y="536"/>
      <point x="496" y="456"/>
    </contour>
    <contour>
      <point x="451" y="267" type="curve" smooth="yes"/>
      <point x="451" y="424"/>
      <point x="390" y="497"/>
      <point x="292" y="497" type="curve" smooth="yes"/>
      <point x="226" y="497"/>
      <point x="170" y="458"/>
      <point x="130" y="401" type="curve"/>
      <point x="130" y="126" type="line"/>
      <point x="166" y="70"/>
      <point x="225" y="28"/>
      <point x="294" y="28" type="curve" smooth="yes"/>
      <point x="394" y="28"/>
      <point x="451" y="105"/>
    </contour>
  </outline>
</glyph>
<glyph name="c" format="1">
  <advance width="492"/>
  <unicode hex="0063"/>
  <outline>
    <contour>
      <point x="436" y="54" type="line"/>
      <point x="395" y="14"/>
      <point x="343" y="-11"/>
      <point x="273" y="-11" type="curve" smooth="yes"/>
      <point x="162" y="-11"/>
      <point x="57" y="73"/>
      <point x="57" y="261" type="curve" smooth="yes"/>
      <point x="57" y="453"/>
      <point x="168" y="536"/>
      <point x="277" y="536" type="curve" smooth="yes"/>
      <point x="349" y="536"/>
      <point x="397" y="511"/>
      <point x="436" y="478" type="curve"/>
      <point x="409" y="445" type="line"/>
      <point x="372" y="477"/>
      <point x="335" y="497"/>
      <point x="274" y="497" type="curve" smooth="yes"/>
      <point x="182" y="497"/>
      <point x="102" y="416"/>
      <point x="102" y="265" type="curve" smooth="yes"/>
      <point x="102" y="112"/>
      <point x="177" y="28"/>
      <point x="275" y="28" type="curve" smooth="yes"/>
      <point x="331" y="28"/>
      <point x="374" y="49"/>
      <point x="410" y="83" type="curve"/>
    </contour>
  </outline>
</glyph>
<glyph name="e" format="1">
  <advance width="538"/>
  <unicode hex="0065"/>
  <outline>
    <contour>
      <point x="477" y="274" type="curve" smooth="yes"/>
      <point x="477" y="263"/>
      <point x="476" y="256"/>
      <point x="475" y="250" type="curve"/>
      <point x="101" y="250" type="line"/>
      <point x="105" y="109"/>
      <point x="174" y="28"/>
      <point x="271" y="28" type="curve" smooth="yes"/>
      <point x="339" y="28"/>
      <point x="380" y="45"/>
      <point x="428" y="75" type="curve"/>
      <point x="448" y="43" type="line"/>
      <point x="392" y="8"/>
      <point x="345" y="-11"/>
      <point x="266" y="-11" type="curve" smooth="yes"/>
      <point x="163" y="-11"/>
      <point x="57" y="71"/>
      <point x="57" y="264" type="curve" smooth="yes"/>
      <point x="57" y="435"/>
      <point x="150" y="536"/>
      <point x="269" y="536" type="curve" smooth="yes"/>
      <point x="396" y="536"/>
      <point x="477" y="435"/>
    </contour>
    <contour>
      <point x="435" y="286" type="line"/>
      <point x="431" y="419"/>
      <point x="369" y="497"/>
      <point x="269" y="497" type="curve" smooth="yes"/>
      <point x="177" y="497"/>
      <point x="107" y="425"/>
      <point x="101" y="286" type="curve"/>
    </contour>
  </outline>
</glyph>
<glyph name="f" format="1">
  <advance width="342"/>
  <unicode hex="0066"/>
  <outline>
    <contour>
      <point x="302" y="673" type="line"/>
      <point x="287" y="680"/>
      <point x="267" y="685"/>
      <point x="240" y="685" type="curve" smooth="yes"/>
      <point x="201" y="685"/>
      <point x="169" y="667"/>
      <point x="169" y="606" type="curve" smooth="yes"/>
      <point x="169" y="525" type="line"/>
      <point x="291" y="525" type="line"/>
      <point x="291" y="488" type="line"/>
      <point x="169" y="488" type="line"/>
      <point x="169" y="0" type="line"/>
      <point x="125" y="0" type="line"/>
      <point x="125" y="488" type="line"/>
      <point x="47" y="488" type="line"/>
      <point x="47" y="525" type="line"/>
      <point x="125" y="525" type="line"/>
      <point x="125" y="602" type="line" smooth="yes"/>
      <point x="125" y="693"/>
      <point x="173" y="725"/>
      <point x="237" y="725" type="curve" smooth="yes"/>
      <point x="268" y="725"/>
      <point x="288" y="720"/>
      <point x="303" y="715" type="curve"/>
    </contour>
  </outline>
</glyph>
<glyph name="i" format="1">
  <advance width="226"/>
  <unicode hex="0069"/>
  <outline>
    <contour>
      <point x="145" y="672" type="curve" smooth="yes"/>
      <point x="145" y="655"/>
      <point x="130" y="640"/>
      <point x="114" y="640" type="curve" smooth="yes"/>
      <point x="95" y="640"/>
      <point x="81" y="655"/>
      <point x="81" y="672" type="curve" smooth="yes"/>
      <point x="81" y="690"/>
      <point x="95" y="704"/>
      <point x="114" y="704" type="curve" smooth="yes"/>
      <point x="130" y="704"/>
      <point x="145" y="690"/>
    </contour>
    <contour>
      <point x="135" y="0" type="line"/>
      <point x="91" y="0" type="line"/>
      <point x="91" y="525" type="line"/>
      <point x="135" y="525" type="line"/>
    </contour>
  </outline>
</glyph>
<glyph name="j" format="1">
  <advance width="226"/>
  <unicode hex="006A"/>
  <outline>
    <contour>
      <point x="145" y="672" type="curve" smooth="yes"/>
      <point x="145" y="655"/>
      <point x="130" y="640"/>
      <point x="114" y="640" type="curve" smooth="yes"/>
      <point x="95" y="640"/>
      <point x="81" y="655"/>
      <point x="81" y="672" type="curve" smooth="yes"/>
      <point x="81" y="690"/>
      <point x="95" y="704"/>
      <point x="114" y="704" type="curve" smooth="yes"/>
      <point x="130" y="704"/>
      <point x="145" y="690"/>
    </contour>
    <contour>
      <point x="135" y="-2" type="line" smooth="yes"/>
      <point x="135" y="-116"/>
      <point x="109" y="-166"/>
      <point x="7" y="-195" type="curve"/>
      <point x="-10" y="-157" type="line"/>
      <point x="74" y="-132"/>
      <point x="91" y="-102"/>
      <point x="91" y="-1" type="curve" smooth="yes"/>
      <point x="91" y="525" type="line"/>
      <point x="135" y="525" type="line"/>
    </contour>
  </outline>
</glyph>
<glyph name="k" format="1">
  <advance width="494"/>
  <unicode hex="006B"/>
  <outline>
    <contour>
      <point x="451" y="0" type="line"/>
      <point x="403" y="0" type="line"/>
      <point x="239" y="291" type="line"/>
      <point x="130" y="147" type="line"/>
      <point x="130" y="0" type="line"/>
      <point x="86" y="0" type="line"/>
      <point x="86" y="704" type="line"/>
      <point x="130" y="729" type="line"/>
      <point x="130" y="206" type="line"/>
      <point x="367" y="525" type="line"/>
      <point x="416" y="525" type="line"/>
      <point x="267" y="328" type="line"/>
    </contour>
  </outline>
</glyph>
<glyph name="l" format="1">
  <advance width="226"/>
  <unicode hex="006C"/>
  <outline>
    <contour>
      <point x="135" y="0" type="line"/>
      <point x="91" y="0" type="line"/>
      <point x="91" y="704" type="line"/>
      <point x="135" y="729" type="line"/>
    </contour>
  </outline>
</glyph>
<glyph name="m" format="1">
  <advance width="877"/>
  <unicode hex="006D"/>
  <outline>
    <contour>
      <point x="803" y="0" type="line"/>
      <point x="759" y="0" type="line"/>
      <point x="759" y="314" type="line" smooth="yes"/>
      <point x="759" y="446"/>
      <point x="703" y="497"/>
      <point x="616" y="497" type="curve" smooth="yes"/>
      <point x="542" y="497"/>
      <point x="467" y="452"/>
      <point x="467" y="315" type="curve" smooth="yes"/>
      <point x="467" y="0" type="line"/>
      <point x="423" y="0" type="line"/>
      <point x="423" y="315" type="line" smooth="yes"/>
      <point x="423" y="447"/>
      <point x="365" y="497"/>
      <point x="279" y="497" type="curve" smooth="yes"/>
      <point x="205" y="497"/>
      <point x="130" y="452"/>
      <point x="130" y="315" type="curve" smooth="yes"/>
      <point x="130" y="0" type="line"/>
      <point x="86" y="0" type="line"/>
      <point x="86" y="525" type="line"/>
      <point x="130" y="525" type="line"/>
      <point x="130" y="436" type="line"/>
      <point x="155" y="501"/>
      <point x="214" y="536"/>
      <point x="288" y="536" type="curve" smooth="yes"/>
      <point x="377" y="536"/>
      <point x="431" y="485"/>
      <point x="450" y="417" type="curve"/>
      <point x="475" y="493"/>
      <point x="536" y="536"/>
      <point x="624" y="536" type="curve" smooth="yes"/>
      <point x="731" y="536"/>
      <point x="803" y="474"/>
      <point x="803" y="322" type="curve" smooth="yes"/>
    </contour>
  </outline>
</glyph>
<glyph name="n" format="1">
  <advance width="565"/>
  <unicode hex="006E"/>
  <outline>
    <contour>
      <point x="483" y="0" type="line"/>
      <point x="439" y="0" type="line"/>
      <point x="439" y="314" type="line" smooth="yes"/>
      <point x="439" y="442"/>
      <point x="383" y="497"/>
      <point x="288" y="497" type="curve" smooth="yes"/>
      <point x="211" y="497"/>
      <point x="130" y="451"/>
      <point x="130" y="315" type="curve" smooth="yes"/>
      <point x="130" y="0" type="line"/>
      <point x="86" y="0" type="line"/>
      <point x="86" y="525" type="line"/>
      <point x="130" y="525" type="line"/>
      <point x="130" y="436" type="line"/>
      <point x="156" y="500"/>
      <point x="218" y="536"/>
      <point x="297" y="536" type="curve" smooth="yes"/>
      <point x="408" y="536"/>
      <point x="483" y="473"/>
      <point x="483" y="322" type="curve" smooth="yes"/>
    </contour>
  </outline>
</glyph>
<glyph name="o" format="1">
  <advance width="567"/>
  <unicode hex="006F"/>
  <outline>
    <contour>
      <point x="510" y="265" type="curve" smooth="yes"/>
      <point x="510" y="88"/>
      <point x="409" y="-11"/>
      <point x="282" y="-11" type="curve" smooth="yes"/>
      <point x="156" y="-11"/>
      <point x="57" y="85"/>
      <point x="57" y="262" type="curve" smooth="yes"/>
      <point x="57" y="439"/>
      <point x="158" y="536"/>
      <point x="285" y="536" type="curve" smooth="yes"/>
      <point x="411" y="536"/>
      <point x="510" y="441"/>
    </contour>
    <contour>
      <point x="465" y="264" type="curve" smooth="yes"/>
      <point x="465" y="417"/>
      <point x="388" y="497"/>
      <point x="283" y="497" type="curve" smooth="yes"/>
      <point x="179" y="497"/>
      <point x="102" y="417"/>
      <point x="102" y="264" type="curve" smooth="yes"/>
      <point x="102" y="110"/>
      <point x="179" y="28"/>
      <point x="283" y="28" type="curve" smooth="yes"/>
      <point x="388" y="28"/>
      <point x="465" y="110"/>
    </contour>
  </outline>
</glyph>
<glyph name="r" format="1">
  <advance width="396"/>
  <unicode hex="0072"/>
  <outline>
    <contour>
      <point x="360" y="522" type="curve"/>
      <point x="349" y="479" type="line"/>
      <point x="326" y="489"/>
      <point x="303" y="495"/>
      <point x="268" y="495" type="curve" smooth="yes"/>
      <point x="200" y="495"/>
      <point x="130" y="443"/>
      <point x="130" y="316" type="curve" smooth="yes"/>
      <point x="130" y="0" type="line"/>
      <point x="86" y="0" type="line"/>
      <point x="86" y="525" type="line"/>
      <point x="130" y="525" type="line"/>
      <point x="130" y="430" type="line"/>
      <point x="150" y="496"/>
      <point x="213" y="536"/>
      <point x="277" y="536" type="curve" smooth="yes"/>
      <point x="315" y="536"/>
      <point x="342" y="531"/>
    </contour>
  </outline>
</glyph>
<glyph name="s" format="1">
  <advance width="449"/>
  <unicode hex="0073"/>
  <outline>
    <contour>
      <point x="388" y="129" type="curve" smooth="yes"/>
      <point x="388" y="36"/>
      <point x="313" y="-11"/>
      <point x="218" y="-11" type="curve" smooth="yes"/>
      <point x="149" y="-11"/>
      <point x="99" y="11"/>
      <point x="49" y="50" type="curve"/>
      <point x="73" y="82" type="line"/>
      <point x="114" y="48"/>
      <point x="161" y="27"/>
      <point x="219" y="27" type="curve" smooth="yes"/>
      <point x="300" y="27"/>
      <point x="346" y="64"/>
      <point x="346" y="128" type="curve" smooth="yes"/>
      <point x="346" y="182"/>
      <point x="315" y="211"/>
      <point x="212" y="255" type="curve" smooth="yes"/>
      <point x="104" y="301"/>
      <point x="64" y="331"/>
      <point x="64" y="410" type="curve" smooth="yes"/>
      <point x="64" y="482"/>
      <point x="126" y="536"/>
      <point x="217" y="536" type="curve" smooth="yes"/>
      <point x="290" y="536"/>
      <point x="342" y="513"/>
      <point x="377" y="484" type="curve"/>
      <point x="352" y="452" type="line"/>
      <point x="316" y="480"/>
      <point x="277" y="498"/>
      <point x="215" y="498" type="curve" smooth="yes"/>
      <point x="147" y="498"/>
      <point x="107" y="460"/>
      <point x="107" y="413" type="curve" smooth="yes"/>
      <point x="107" y="357"/>
      <point x="136" y="333"/>
      <point x="235" y="291" type="curve" smooth="yes"/>
      <point x="338" y="247"/>
      <point x="388" y="214"/>
    </contour>
  </outline>
</glyph>
<glyph name="t" format="1">
  <advance width="348"/>
  <unicode hex="0074"/>
  <outline>
    <contour>
      <point x="289" y="49" type="curve"/>
      <point x="287" y="10" type="line"/>
      <point x="260" y="-2"/>
      <point x="231" y="-9"/>
      <point x="193" y="-9" type="curve" smooth="yes"/>
      <point x="135" y="-9"/>
      <point x="104" y="23"/>
      <point x="104" y="93" type="curve" smooth="yes"/>
      <point x="104" y="488" type="line"/>
      <point x="36" y="488" type="line"/>
      <point x="36" y="525" type="line"/>
      <point x="104" y="525" type="line"/>
      <point x="104" y="704" type="line"/>
      <point x="148" y="729" type="line"/>
      <point x="148" y="525" type="line"/>
      <point x="287" y="525" type="line"/>
      <point x="287" y="488" type="line"/>
      <point x="148" y="488" type="line"/>
      <point x="148" y="100" type="line" smooth="yes"/>
      <point x="148" y="53"/>
      <point x="166" y="31"/>
      <point x="209" y="31" type="curve" smooth="yes"/>
      <point x="240" y="31"/>
      <point x="264" y="37"/>
    </contour>
  </outline>
</glyph>
<glyph name="u" format="1">
  <advance width="565"/>
  <unicode hex="0075"/>
  <outline>
    <contour>
      <point x="479" y="0" type="line"/>
      <point x="435" y="0" type="line"/>
      <point x="435" y="89" type="line"/>
      <point x="413" y="24"/>
      <point x="348" y="-11"/>
      <point x="269" y="-11" type="curve" smooth="yes"/>
      <point x="157" y="-11"/>
      <point x="82" y="52"/>
      <point x="82" y="203" type="curve" smooth="yes"/>
      <point x="82" y="525" type="line"/>
      <point x="126" y="525" type="line"/>
      <point x="126" y="211" type="line" smooth="yes"/>
      <point x="126" y="83"/>
      <point x="183" y="28"/>
      <point x="277" y="28" type="curve" smooth="yes"/>
      <point x="354" y="28"/>
      <point x="435" y="74"/>
      <point x="435" y="210" type="curve" smooth="yes"/>
      <point x="435" y="525" type="line"/>
      <point x="479" y="525" type="line"/>
    </contour>
  </outline>
</glyph>
<glyph name="v" format="1">
  <advance width="509"/>
  <unicode hex="0076"/>
  <outline>
    <contour>
      <point x="466" y="525" type="line"/>
      <point x="274" y="-1" type="line"/>
      <point x="235" y="-1" type="line"/>
      <point x="43" y="525" type="line"/>
      <point x="91" y="525" type="line"/>
      <point x="255" y="51" type="line"/>
      <point x="420" y="525" type="line"/>
    </contour>
  </outline>
</glyph>
<glyph name="w" format="1">
  <advance width="720"/>
  <unicode hex="0077"/>
  <outline>
    <contour>
      <point x="672" y="525" type="line"/>
      <point x="533" y="-1" type="line"/>
      <point x="492" y="-1" type="line"/>
      <point x="360" y="458" type="line"/>
      <point x="227" y="-1" type="line"/>
      <point x="187" y="-1" type="line"/>
      <point x="48" y="525" type="line"/>
      <point x="94" y="525" type="line"/>
      <point x="208" y="67" type="line"/>
      <point x="341" y="526" type="line"/>
      <point x="381" y="526" type="line"/>
      <point x="514" y="67" type="line"/>
      <point x="628" y="525" type="line"/>
    </contour>
  </outline>
</glyph>
<glyph name="x" format="1">
  <advance width="492"/>
  <unicode hex="0078"/>
  <outline>
    <contour>
      <point x="437" y="0" type="line"/>
      <point x="387" y="0" type="line"/>
      <point x="245" y="238" type="line"/>
      <point x="102" y="0" type="line"/>
      <point x="55" y="0" type="line"/>
      <point x="223" y="274" type="line"/>
      <point x="70" y="525" type="line"/>
      <point x="119" y="525" type="line"/>
      <point x="247" y="312" type="line"/>
      <point x="375" y="525" type="line"/>
      <point x="422" y="525" type="line"/>
      <point x="269" y="276" type="line"/>
    </contour>
  </outline>
</glyph>
<glyph name="y" format="1">
  <advance width="514"/>
  <unicode hex="0079"/>
  <outline>
    <contour>
      <point x="471" y="525" type="line"/>
      <point x="208" y="-185" type="line"/>
      <point x="164" y="-185" type="line"/>
      <point x="234" y="3" type="line"/>
      <point x="43" y="525" type="line"/>
      <point x="90" y="525" type="line"/>
      <point x="257" y="53" type="line"/>
      <point x="424" y="525" type="line"/>
    </contour>
  </outline>
</glyph>
<glyph name="z" format="1">
  <advance width="491"/>
  <unicode hex="007A"/>
  <outline>
    <contour>
      <point x="423" y="0" type="line"/>
      <point x="57" y="0" type="line"/>
      <point x="57" y="33" type="line"/>
      <point x="373" y="488" type="line"/>
      <point x="85" y="488" type="line"/>
      <point x="85" y="525" type="line"/>
      <point x="423" y="525" type="line"/>
      <point x="423" y="492" type="line"/>
      <point x="108" y="37" type="line"/>
      <point x="423" y="37" type="line"/>
    </contour>
  </outline>
</glyph>
<glyph name="braceleft" format="1">
  <advance width="377"/>
  <unicode hex="007B"/>
  <outline>
    <contour>
      <point x="323" y="-110" type="line"/>
      <point x="204" y="-103"/>
      <point x="146" y="-48"/>
      <point x="146" y="87" type="curve" smooth="yes"/>
      <point x="146" y="204" type="line" smooth="yes"/>
      <point x="146" y="248"/>
      <point x="130" y="275"/>
      <point x="83" y="275" type="curve" smooth="yes"/>
      <point x="54" y="275" type="line"/>
      <point x="54" y="317" type="line"/>
      <point x="83" y="317" type="line" smooth="yes"/>
      <point x="130" y="317"/>
      <point x="146" y="344"/>
      <point x="146" y="388" type="curve" smooth="yes"/>
      <point x="146" y="507" type="line" smooth="yes"/>
      <point x="146" y="642"/>
      <point x="204" y="697"/>
      <point x="323" y="703" type="curve"/>
      <point x="323" y="666" type="line"/>
      <point x="232" y="656"/>
      <point x="190" y="618"/>
      <point x="190" y="512" type="curve" smooth="yes"/>
      <point x="190" y="404" type="line" smooth="yes"/>
      <point x="190" y="344"/>
      <point x="174" y="311"/>
      <point x="132" y="295" type="curve"/>
      <point x="174" y="280"/>
      <point x="190" y="247"/>
      <point x="190" y="187" type="curve" smooth="yes"/>
      <point x="190" y="82" type="line" smooth="yes"/>
      <point x="190" y="-24"/>
      <point x="232" y="-62"/>
      <point x="323" y="-72" type="curve"/>
    </contour>
  </outline>
</glyph>
<glyph name="bar" format="1">
  <advance width="291"/>
  <unicode hex="007C"/>
  <outline>
    <contour>
      <point x="167" y="-185" type="line"/>
      <point x="124" y="-185" type="line"/>
      <point x="124" y="800" type="line"/>
      <point x="167" y="800" type="line"/>
    </contour>
  </outline>
</glyph>
<glyph name="braceright" format="1">
  <advance width="377"/>
  <unicode hex="007D"/>
  <outline>
    <contour>
      <point x="322" y="277" type="line"/>
      <point x="294" y="277" type="line" smooth="yes"/>
      <point x="247" y="277"/>
      <point x="231" y="250"/>
      <point x="231" y="205" type="curve" smooth="yes"/>
      <point x="231" y="87" type="line" smooth="yes"/>
      <point x="231" y="-48"/>
      <point x="173" y="-103"/>
      <point x="54" y="-110" type="curve"/>
      <point x="54" y="-72" type="line"/>
      <point x="145" y="-62"/>
      <point x="187" y="-24"/>
      <point x="187" y="82" type="curve" smooth="yes"/>
      <point x="187" y="190" type="line" smooth="yes"/>
      <point x="187" y="250"/>
      <point x="203" y="283"/>
      <point x="245" y="298" type="curve"/>
      <point x="203" y="314"/>
      <point x="187" y="347"/>
      <point x="187" y="407" type="curve" smooth="yes"/>
      <point x="187" y="512" type="line" smooth="yes"/>
      <point x="187" y="618"/>
      <point x="145" y="656"/>
      <point x="54" y="666" type="curve"/>
      <point x="54" y="703" type="line"/>
      <point x="173" y="697"/>
      <point x="231" y="642"/>
      <point x="231" y="507" type="curve" smooth="yes"/>
      <point x="231" y="390" type="line" smooth="yes"/>
      <point x="231" y="345"/>
      <point x="247" y="318"/>
      <point x="294" y="318" type="curve" smooth="yes"/>
      <point x="322" y="318" type="line"/>
    </contour>
  </outline>
</glyph>
<glyph name="asciitilde" format="1">
  <advance width="538"/>
  <unicode hex="007E"/>
  <outline>
    <contour>
      <point x="481" y="413" type="line"/>
      <point x="450" y="344"/>
      <point x="417" y="312"/>
      <point x="360" y="312" type="curve" smooth="yes"/>
      <point x="323" y="312"/>
      <point x="297" y="326"/>
      <point x="266" y="347" type="curve" smooth="yes"/>
      <point x="230" y="372"/>
      <point x="204" y="385"/>
      <point x="179" y="385" type="curve" smooth="yes"/>
      <point x="142" y="385"/>
      <point x="121" y="363"/>
      <point x="96" y="311" type="curve"/>
      <point x="57" y="329" type="line"/>
      <point x="88" y="398"/>
      <point x="121" y="430"/>
      <point x="179" y="430" type="curve" smooth="yes"/>
      <point x="214" y="430"/>
      <point x="240" y="417"/>
      <point x="272" y="395" type="curve" smooth="yes"/>
      <point x="307" y="371"/>
      <point x="332" y="357"/>
      <point x="360" y="357" type="curve" smooth="yes"/>
      <point x="396" y="357"/>
      <point x="416" y="377"/>
      <point x="442" y="431" type="curve"/>
    </contour>
  </outline>
</glyph>
<glyph name="exclamdown" format="1">
  <advance width="244"/>
  <unicode hex="00A1"/>
  <outline>
    <contour>
      <point x="84" y="669" type="curve" smooth="yes"/>
      <point x="84" y="689"/>
      <point x="102" y="706"/>
      <point x="121" y="706" type="curve" smooth="yes"/>
      <point x="141" y="706"/>
      <point x="158" y="689"/>
      <point x="158" y="669" type="curve" smooth="yes"/>
      <point x="158" y="649"/>
      <point x="141" y="631"/>
      <point x="121" y="631" type="curve" smooth="yes"/>
      <point x="102" y="631"/>
      <point x="84" y="649"/>
    </contour>
    <contour>
      <point x="99" y="329" type="line"/>
      <point x="109" y="537" type="line"/>
      <point x="134" y="537" type="line"/>
      <point x="144" y="329" type="line"/>
      <point x="144" y="0" type="line"/>
      <point x="99" y="0" type="line"/>
    </contour>
  </outline>
</glyph>
<glyph name="cent" format="1">
  <advance width="492"/>
  <unicode hex="00A2"/>
  <outline>
    <contour>
      <point x="436" y="148" type="line"/>
      <point x="400" y="113"/>
      <point x="353" y="89"/>
      <point x="295" y="85" type="curve"/>
      <point x="295" y="-11" type="line"/>
      <point x="250" y="-11" type="line"/>
      <point x="250" y="85" type="line"/>
      <point x="148" y="96"/>
      <point x="57" y="183"/>
      <point x="57" y="355" type="curve" smooth="yes"/>
      <point x="57" y="528"/>
      <point x="151" y="616"/>
      <point x="250" y="628" type="curve"/>
      <point x="250" y="716" type="line"/>
      <point x="295" y="716" type="line"/>
      <point x="295" y="629" type="line"/>
      <point x="359" y="625"/>
      <point x="401" y="602"/>
      <point x="436" y="572" type="curve"/>
      <point x="410" y="540" type="line"/>
      <point x="371" y="573"/>
      <point x="336" y="591"/>
      <point x="274" y="591" type="curve" smooth="yes"/>
      <point x="182" y="591"/>
      <point x="102" y="510"/>
      <point x="102" y="359" type="curve" smooth="yes"/>
      <point x="102" y="206"/>
      <point x="177" y="122"/>
      <point x="275" y="122" type="curve" smooth="yes"/>
      <point x="331" y="122"/>
      <point x="374" y="142"/>
      <point x="410" y="176" type="curve"/>
    </contour>
  </outline>
</glyph>
<glyph name="sterling" format="1">
  <advance width="582"/>
  <unicode hex="00A3"/>
  <outline>
    <contour>
      <point x="229" y="306" type="line"/>
      <point x="231" y="293"/>
      <point x="232" y="279"/>
      <point x="232" y="265" type="curve" smooth="yes"/>
      <point x="232" y="190"/>
      <point x="199" y="110"/>
      <point x="135" y="42" type="curve"/>
      <point x="527" y="42" type="line"/>
      <point x="527" y="0" type="line"/>
      <point x="79" y="0" type="line"/>
      <point x="79" y="41" type="line"/>
      <point x="154" y="119"/>
      <point x="188" y="186"/>
      <point x="188" y="266" type="curve" smooth="yes"/>
      <point x="188" y="280"/>
      <point x="187" y="293"/>
      <point x="184" y="306" type="curve"/>
      <point x="79" y="306" type="line"/>
      <point x="79" y="347" type="line"/>
      <point x="172" y="347" type="line"/>
      <point x="149" y="409"/>
      <point x="107" y="459"/>
      <point x="107" y="539" type="curve" smooth="yes"/>
      <point x="107" y="647"/>
      <point x="193" y="711"/>
      <point x="316" y="711" type="curve" smooth="yes"/>
      <point x="394" y="711"/>
      <point x="457" y="684"/>
      <point x="514" y="637" type="curve"/>
      <point x="486" y="603" type="line"/>
      <point x="437" y="646"/>
      <point x="381" y="670"/>
      <point x="315" y="670" type="curve" smooth="yes"/>
      <point x="209" y="670"/>
      <point x="152" y="614"/>
      <point x="152" y="540" type="curve" smooth="yes"/>
      <point x="152" y="466"/>
      <point x="197" y="418"/>
      <point x="219" y="347" type="curve"/>
      <point x="382" y="347" type="line"/>
      <point x="382" y="306" type="line"/>
    </contour>
  </outline>
</glyph>
<glyph name="yen" format="1">
  <advance width="610"/>
  <unicode hex="00A5"/>
  <outline>
    <contour>
      <point x="561" y="700" type="line"/>
      <point x="328" y="288" type="line"/>
      <point x="328" y="188" type="line"/>
      <point x="476" y="188" type="line"/>
      <point x="476" y="147" type="line"/>
      <point x="328" y="147" type="line"/>
      <point x="328" y="0" type="line"/>
      <point x="282" y="0" type="line"/>
      <point x="282" y="147" type="line"/>
      <point x="129" y="147" type="line"/>
      <point x="129" y="188" type="line"/>
      <point x="282" y="188" type="line"/>
      <point x="282" y="287" type="line"/>
      <point x="49" y="700" type="line"/>
      <point x="102" y="700" type="line"/>
      <point x="306" y="331" type="line"/>
      <point x="510" y="700" type="line"/>
    </contour>
  </outline>
</glyph>
<glyph name="section" format="1">
  <advance width="609"/>
  <unicode hex="00A7"/>
  <outline>
    <contour>
      <point x="551" y="265" type="curve" smooth="yes"/>
      <point x="551" y="180"/>
      <point x="486" y="123"/>
      <point x="400" y="92" type="curve"/>
      <point x="459" y="61"/>
      <point x="482" y="27"/>
      <point x="482" y="-24" type="curve" smooth="yes"/>
      <point x="482" y="-108"/>
      <point x="412" y="-164"/>
      <point x="303" y="-164" type="curve" smooth="yes"/>
      <point x="228" y="-164"/>
      <point x="167" y="-139"/>
      <point x="122" y="-104" type="curve"/>
      <point x="146" y="-68" type="line"/>
      <point x="197" y="-105"/>
      <point x="241" y="-123"/>
      <point x="310" y="-123" type="curve" smooth="yes"/>
      <point x="388" y="-123"/>
      <point x="437" y="-84"/>
      <point x="437" y="-28" type="curve" smooth="yes"/>
      <point x="437" y="29"/>
      <point x="401" y="61"/>
      <point x="276" y="96" type="curve" smooth="yes"/>
      <point x="109" y="143"/>
      <point x="58" y="188"/>
      <point x="58" y="282" type="curve" smooth="yes"/>
      <point x="58" y="367"/>
      <point x="123" y="424"/>
      <point x="209" y="455" type="curve"/>
      <point x="150" y="486"/>
      <point x="127" y="520"/>
      <point x="127" y="571" type="curve" smooth="yes"/>
      <point x="127" y="655"/>
      <point x="197" y="711"/>
      <point x="306" y="711" type="curve" smooth="yes"/>
      <point x="381" y="711"/>
      <point x="437" y="689"/>
      <point x="487" y="650" type="curve"/>
      <point x="463" y="615" type="line"/>
      <point x="413" y="653"/>
      <point x="368" y="670"/>
      <point x="299" y="670" type="curve" smooth="yes"/>
      <point x="221" y="670"/>
      <point x="172" y="631"/>
      <point x="172" y="575" type="curve" smooth="yes"/>
      <point x="172" y="518"/>
      <point x="208" y="486"/>
      <point x="333" y="451" type="curve" smooth="yes"/>
      <point x="500" y="404"/>
      <point x="551" y="359"/>
    </contour>
    <contour>
      <point x="505" y="262" type="curve" smooth="yes"/>
      <point x="505" y="330"/>
      <point x="471" y="368"/>
      <point x="328" y="408" type="curve" smooth="yes"/>
      <point x="299" y="416"/>
      <point x="272" y="425"/>
      <point x="248" y="434" type="curve"/>
      <point x="160" y="406"/>
      <point x="104" y="355"/>
      <point x="104" y="285" type="curve" smooth="yes"/>
      <point x="104" y="217"/>
      <point x="138" y="179"/>
      <point x="280" y="139" type="curve" smooth="yes"/>
      <point x="310" y="131"/>
      <point x="337" y="122"/>
      <point x="361" y="113" type="curve"/>
      <point x="449" y="141"/>
      <point x="505" y="192"/>
    </contour>
  </outline>
</glyph>
<glyph name="dieresis" format="1">
  <advance width="500"/>
  <unicode hex="00A8"/>
  <outline>
    <contour>
      <point x="380" y="659" type="curve" smooth="yes"/>
      <point x="380" y="641"/>
      <point x="365" y="626"/>
      <point x="347" y="626" type="curve" smooth="yes"/>
      <point x="329" y="626"/>
      <point x="314" y="641"/>
      <point x="314" y="659" type="curve" smooth="yes"/>
      <point x="314" y="677"/>
      <point x="329" y="693"/>
      <point x="347" y="693" type="curve" smooth="yes"/>
      <point x="365" y="693"/>
      <point x="380" y="677"/>
    </contour>
    <contour>
      <point x="186" y="659" type="curve" smooth="yes"/>
      <point x="186" y="641"/>
      <point x="171" y="626"/>
      <point x="154" y="626" type="curve" smooth="yes"/>
      <point x="135" y="626"/>
      <point x="120" y="641"/>
      <point x="120" y="659" type="curve" smooth="yes"/>
      <point x="120" y="677"/>
      <point x="135" y="693"/>
      <point x="154" y="693" type="curve" smooth="yes"/>
      <point x="171" y="693"/>
      <point x="186" y="677"/>
    </contour>
  </outline>
</glyph>
<glyph name="copyright" format="1">
  <advance width="836"/>
  <unicode hex="00A9"/>
  <outline>
    <contour>
      <point x="779" y="350" type="curve" smooth="yes"/>
      <point x="779" y="138"/>
      <point x="625" y="-11"/>
      <point x="418" y="-11" type="curve" smooth="yes"/>
      <point x="211" y="-11"/>
      <point x="57" y="138"/>
      <point x="57" y="350" type="curve" smooth="yes"/>
      <point x="57" y="562"/>
      <point x="211" y="711"/>
      <point x="418" y="711" type="curve" smooth="yes"/>
      <point x="625" y="711"/>
      <point x="779" y="562"/>
    </contour>
    <contour>
      <point x="749" y="350" type="curve" smooth="yes"/>
      <point x="749" y="545"/>
      <point x="608" y="683"/>
      <point x="418" y="683" type="curve" smooth="yes"/>
      <point x="228" y="683"/>
      <point x="87" y="545"/>
      <point x="87" y="350" type="curve" smooth="yes"/>
      <point x="87" y="155"/>
      <point x="228" y="17"/>
      <point x="418" y="17" type="curve" smooth="yes"/>
      <point x="608" y="17"/>
      <point x="749" y="155"/>
    </contour>
    <contour>
      <point x="542" y="195" type="line"/>
      <point x="510" y="158"/>
      <point x="469" y="138"/>
      <point x="418" y="138" type="curve" smooth="yes"/>
      <point x="319" y="138"/>
      <point x="251" y="225"/>
      <point x="251" y="350" type="curve" smooth="yes"/>
      <point x="251" y="476"/>
      <point x="321" y="562"/>
      <point x="419" y="562" type="curve" smooth="yes"/>
      <point x="472" y="562"/>
      <point x="509" y="544"/>
      <point x="538" y="510" type="curve"/>
      <point x="514" y="489" type="line"/>
      <point x="488" y="519"/>
      <point x="462" y="532"/>
      <point x="419" y="532" type="curve" smooth="yes"/>
      <point x="340" y="532"/>
      <point x="283" y="460"/>
      <point x="283" y="351" type="curve" smooth="yes"/>
      <point x="283" y="242"/>
      <point x="340" y="168"/>
      <point x="419" y="168" type="curve" smooth="yes"/>
      <point x="459" y="168"/>
      <point x="492" y="184"/>
      <point x="520" y="217" type="curve"/>
    </contour>
  </outline>
</glyph>
<glyph name="ordfeminine" format="1">
  <advance width="457"/>
  <unicode hex="00AA"/>
  <outline>
    <contour>
      <point x="378" y="282" type="line"/>
      <point x="338" y="282" type="line"/>
      <point x="338" y="341" type="line"/>
      <point x="308" y="301"/>
      <point x="258" y="273"/>
      <point x="198" y="273" type="curve" smooth="yes"/>
      <point x="129" y="273"/>
      <point x="57" y="305"/>
      <point x="57" y="403" type="curve" smooth="yes"/>
      <point x="57" y="497"/>
      <point x="132" y="540"/>
      <point x="217" y="540" type="curve" smooth="yes"/>
      <point x="267" y="540"/>
      <point x="309" y="526"/>
      <point x="338" y="510" type="curve"/>
      <point x="338" y="569" type="line" smooth="yes"/>
      <point x="338" y="645"/>
      <point x="304" y="677"/>
      <point x="231" y="677" type="curve" smooth="yes"/>
      <point x="187" y="677"/>
      <point x="147" y="666"/>
      <point x="110" y="645" type="curve"/>
      <point x="95" y="676" type="line"/>
      <point x="134" y="697"/>
      <point x="179" y="711"/>
      <point x="234" y="711" type="curve" smooth="yes"/>
      <point x="326" y="711"/>
      <point x="378" y="674"/>
      <point x="378" y="573" type="curve" smooth="yes"/>
    </contour>
    <contour>
      <point x="338" y="382" type="curve"/>
      <point x="338" y="477" type="line"/>
      <point x="307" y="494"/>
      <point x="269" y="507"/>
      <point x="215" y="507" type="curve" smooth="yes"/>
      <point x="147" y="507"/>
      <point x="97" y="472"/>
      <point x="97" y="406" type="curve" smooth="yes"/>
      <point x="97" y="334"/>
      <point x="147" y="307"/>
      <point x="204" y="307" type="curve" smooth="yes"/>
      <point x="262" y="307"/>
      <point x="309" y="338"/>
    </contour>
  </outline>
</glyph>
<glyph name="guillemotleft" format="1">
  <advance width="556"/>
  <unicode hex="00AB"/>
  <outline>
    <contour>
      <point x="502" y="0" type="line"/>
      <point x="452" y="0" type="line"/>
      <point x="249" y="262" type="line"/>
      <point x="452" y="525" type="line"/>
      <point x="502" y="525" type="line"/>
      <point x="299" y="263" type="line"/>
    </contour>
    <contour>
      <point x="289" y="0" type="line"/>
      <point x="239" y="0" type="line"/>
      <point x="36" y="262" type="line"/>
      <point x="239" y="525" type="line"/>
      <point x="289" y="525" type="line"/>
      <point x="86" y="263" type="line"/>
    </contour>
  </outline>
</glyph>
<glyph name="degree" format="1">
  <advance width="459"/>
  <unicode hex="00B0"/>
  <outline>
    <contour>
      <point x="400" y="536" type="curve" smooth="yes"/>
      <point x="400" y="436"/>
      <point x="329" y="360"/>
      <point x="229" y="360" type="curve" smooth="yes"/>
      <point x="130" y="360"/>
      <point x="58" y="436"/>
      <point x="58" y="536" type="curve" smooth="yes"/>
      <point x="58" y="634"/>
      <point x="130" y="711"/>
      <point x="229" y="711" type="curve" smooth="yes"/>
      <point x="329" y="711"/>
      <point x="400" y="634"/>
    </contour>
    <contour>
      <point x="361" y="536" type="curve" smooth="yes"/>
      <point x="361" y="615"/>
      <point x="308" y="674"/>
      <point x="229" y="674" type="curve" smooth="yes"/>
      <point x="152" y="674"/>
      <point x="98" y="615"/>
      <point x="98" y="536" type="curve" smooth="yes"/>
      <point x="98" y="455"/>
      <point x="152" y="397"/>
      <point x="229" y="397" type="curve" smooth="yes"/>
      <point x="308" y="397"/>
      <point x="361" y="455"/>
    </contour>
  </outline>
</glyph>
<glyph name="acute" format="1">
  <advance width="500"/>
  <unicode hex="00B4"/>
  <outline>
    <contour>
      <point x="354" y="742" type="line"/>
      <point x="224" y="595" type="line"/>
      <point x="188" y="595" type="line"/>
      <point x="291" y="742" type="line"/>
    </contour>
  </outline>
</glyph>
<glyph name="paragraph" format="1">
  <advance width="657"/>
  <unicode hex="00B6"/>
  <outline>
    <contour>
      <point x="558" y="-185" type="line"/>
      <point x="513" y="-185" type="line"/>
      <point x="513" y="660" type="line"/>
      <point x="399" y="660" type="line"/>
      <point x="399" y="-185" type="line"/>
      <point x="353" y="-185" type="line"/>
      <point x="353" y="262" type="line"/>
      <point x="283" y="262" type="line" smooth="yes"/>
      <point x="142" y="262"/>
      <point x="48" y="346"/>
      <point x="48" y="483" type="curve" smooth="yes"/>
      <point x="48" y="623"/>
      <point x="151" y="700"/>
      <point x="284" y="700" type="curve" smooth="yes"/>
      <point x="558" y="700" type="line"/>
    </contour>
    <contour>
      <point x="353" y="302" type="line"/>
      <point x="353" y="660" type="line"/>
      <point x="289" y="660" type="line" smooth="yes"/>
      <point x="169" y="660"/>
      <point x="94" y="600"/>
      <point x="94" y="485" type="curve" smooth="yes"/>
      <point x="94" y="376"/>
      <point x="153" y="302"/>
      <point x="288" y="302" type="curve" smooth="yes"/>
    </contour>
  </outline>
</glyph>
<glyph name="periodcentered" format="1">
  <advance width="211"/>
  <unicode hex="00B7"/>
  <outline>
    <contour>
      <point x="143" y="377" type="curve" smooth="yes"/>
      <point x="143" y="356"/>
      <point x="125" y="339"/>
      <point x="105" y="339" type="curve" smooth="yes"/>
      <point x="84" y="339"/>
      <point x="67" y="356"/>
      <point x="67" y="377" type="curve" smooth="yes"/>
      <point x="67" y="398"/>
      <point x="84" y="417"/>
      <point x="105" y="417" type="curve" smooth="yes"/>
      <point x="125" y="417"/>
      <point x="143" y="398"/>
    </contour>
  </outline>
</glyph>
<glyph name="cedilla" format="1">
  <advance width="500"/>
  <unicode hex="00B8"/>
  <outline>
    <contour>
      <point x="359" y="-101" type="curve" smooth="yes"/>
      <point x="359" y="-157"/>
      <point x="310" y="-177"/>
      <point x="252" y="-177" type="curve" smooth="yes"/>
      <point x="215" y="-177"/>
      <point x="178" y="-166"/>
      <point x="146" y="-145" type="curve"/>
      <point x="160" y="-124" type="line"/>
      <point x="187" y="-143"/>
      <point x="221" y="-152"/>
      <point x="254" y="-152" type="curve" smooth="yes"/>
      <point x="301" y="-152"/>
      <point x="324" y="-131"/>
      <point x="324" y="-102" type="curve" smooth="yes"/>
      <point x="324" y="-77"/>
      <point x="307" y="-63"/>
      <point x="283" y="-63" type="curve" smooth="yes"/>
      <point x="263" y="-63"/>
      <point x="244" y="-71"/>
      <point x="231" y="-84" type="curve"/>
      <point x="205" y="-75" type="line"/>
      <point x="235" y="0" type="line"/>
      <point x="266" y="0" type="line"/>
      <point x="246" y="-50" type="line"/>
      <point x="260" y="-41"/>
      <point x="274" y="-38"/>
      <point x="297" y="-38" type="curve" smooth="yes"/>
      <point x="325" y="-38"/>
      <point x="359" y="-58"/>
    </contour>
  </outline>
</glyph>
<glyph name="ordmasculine" format="1">
  <advance width="482"/>
  <unicode hex="00BA"/>
  <outline>
    <contour>
      <point x="424" y="494" type="curve" smooth="yes"/>
      <point x="424" y="353"/>
      <point x="343" y="274"/>
      <point x="240" y="274" type="curve" smooth="yes"/>
      <point x="137" y="274"/>
      <point x="58" y="351"/>
      <point x="58" y="492" type="curve" smooth="yes"/>
      <point x="58" y="634"/>
      <point x="139" y="711"/>
      <point x="242" y="711" type="curve" smooth="yes"/>
      <point x="344" y="711"/>
      <point x="424" y="635"/>
    </contour>
    <contour>
      <point x="384" y="493" type="curve" smooth="yes"/>
      <point x="384" y="613"/>
      <point x="324" y="675"/>
      <point x="241" y="675" type="curve" smooth="yes"/>
      <point x="159" y="675"/>
      <point x="98" y="613"/>
      <point x="98" y="493" type="curve" smooth="yes"/>
      <point x="98" y="373"/>
      <point x="159" y="309"/>
      <point x="241" y="309" type="curve" smooth="yes"/>
      <point x="324" y="309"/>
      <point x="384" y="373"/>
    </contour>
  </outline>
</glyph>
<glyph name="guillemotright" format="1">
  <advance width="556"/>
  <unicode hex="00BB"/>
  <outline>
    <contour>
      <point x="267" y="0" type="line"/>
      <point x="470" y="263" type="line"/>
      <point x="267" y="525" type="line"/>
      <point x="317" y="525" type="line"/>
      <point x="520" y="262" type="line"/>
      <point x="317" y="0" type="line"/>
    </contour>
    <contour>
      <point x="54" y="0" type="line"/>
      <point x="257" y="263" type="line"/>
      <point x="54" y="525" type="line"/>
      <point x="104" y="525" type="line"/>
      <point x="307" y="262" type="line"/>
      <point x="104" y="0" type="line"/>
    </contour>
  </outline>
</glyph>
<glyph name="questiondown" format="1">
  <advance width="557"/>
  <unicode hex="00BF"/>
  <outline>
    <contour>
      <point x="268" y="669" type="curve" smooth="yes"/>
      <point x="268" y="689"/>
      <point x="286" y="706"/>
      <point x="305" y="706" type="curve" smooth="yes"/>
      <point x="325" y="706"/>
      <point x="342" y="689"/>
      <point x="342" y="669" type="curve" smooth="yes"/>
      <point x="342" y="649"/>
      <point x="325" y="631"/>
      <point x="305" y="631" type="curve" smooth="yes"/>
      <point x="286" y="631"/>
      <point x="268" y="649"/>
    </contour>
    <contour>
      <point x="79" y="154" type="curve" smooth="yes"/>
      <point x="79" y="244"/>
      <point x="119" y="278"/>
      <point x="200" y="339" type="curve" smooth="yes"/>
      <point x="269" y="391"/>
      <point x="282" y="416"/>
      <point x="282" y="537" type="curve"/>
      <point x="328" y="537" type="line"/>
      <point x="328" y="399"/>
      <point x="312" y="370"/>
      <point x="222" y="305" type="curve" smooth="yes"/>
      <point x="152" y="255"/>
      <point x="125" y="224"/>
      <point x="125" y="157" type="curve" smooth="yes"/>
      <point x="125" y="82"/>
      <point x="188" y="31"/>
      <point x="283" y="31" type="curve" smooth="yes"/>
      <point x="364" y="31"/>
      <point x="422" y="60"/>
      <point x="474" y="104" type="curve"/>
      <point x="500" y="71" type="line"/>
      <point x="448" y="25"/>
      <point x="379" y="-11"/>
      <point x="281" y="-11" type="curve" smooth="yes"/>
      <point x="161" y="-11"/>
      <point x="79" y="49"/>
    </contour>
  </outline>
</glyph>
<glyph name="Aring" format="1">
  <advance width="664"/>
  <unicode hex="00C5"/>
  <outline>
    <contour>
      <point x="602" y="0" type="line"/>
      <point x="554" y="0" type="line"/>
      <point x="487" y="193" type="line"/>
      <point x="176" y="193" type="line"/>
      <point x="109" y="0" type="line"/>
      <point x="62" y="0" type="line"/>
      <point x="298" y="674" type="line"/>
      <point x="261" y="687"/>
      <point x="234" y="722"/>
      <point x="234" y="765" type="curve" smooth="yes"/>
      <point x="234" y="819"/>
      <point x="276" y="862"/>
      <point x="332" y="862" type="curve" smooth="yes"/>
      <point x="387" y="862"/>
      <point x="429" y="819"/>
      <point x="429" y="765" type="curve" smooth="yes"/>
      <point x="429" y="723"/>
      <point x="402" y="687"/>
      <point x="365" y="675" type="curve"/>
    </contour>
    <contour>
      <point x="401" y="765" type="curve" smooth="yes"/>
      <point x="401" y="804"/>
      <point x="372" y="834"/>
      <point x="332" y="834" type="curve" smooth="yes"/>
      <point x="291" y="834"/>
      <point x="262" y="804"/>
      <point x="262" y="765" type="curve" smooth="yes"/>
      <point x="262" y="724"/>
      <point x="291" y="695"/>
      <point x="332" y="695" type="curve" smooth="yes"/>
      <point x="372" y="695"/>
      <point x="401" y="724"/>
    </contour>
    <contour>
      <point x="473" y="235" type="line"/>
      <point x="332" y="646" type="line"/>
      <point x="190" y="235" type="line"/>
    </contour>
  </outline>
</glyph>
<glyph name="AE" format="1">
  <advance width="964"/>
  <unicode hex="00C6"/>
  <outline>
    <contour>
      <point x="916" y="0" type="line"/>
      <point x="505" y="0" type="line"/>
      <point x="505" y="193" type="line"/>
      <point x="208" y="193" type="line"/>
      <point x="79" y="0" type="line"/>
      <point x="26" y="0" type="line"/>
      <point x="500" y="700" type="line"/>
      <point x="901" y="700" type="line"/>
      <point x="901" y="658" type="line"/>
      <point x="549" y="658" type="line"/>
      <point x="549" y="394" type="line"/>
      <point x="762" y="394" type="line"/>
      <point x="762" y="352" type="line"/>
      <point x="549" y="352" type="line"/>
      <point x="549" y="42" type="line"/>
      <point x="916" y="42" type="line"/>
    </contour>
    <contour>
      <point x="505" y="235" type="line"/>
      <point x="505" y="637" type="line"/>
      <point x="235" y="235" type="line"/>
    </contour>
  </outline>
</glyph>
<glyph name="Ccedilla" format="1">
  <advance width="619"/>
  <unicode hex="00C7"/>
  <outline>
    <contour>
      <point x="318" y="-9" type="line"/>
      <point x="168" y="9"/>
      <point x="69" y="151"/>
      <point x="69" y="349" type="curve" smooth="yes"/>
      <point x="69" y="564"/>
      <point x="186" y="711"/>
      <point x="353" y="711" type="curve" smooth="yes"/>
      <point x="441" y="711"/>
      <point x="503" y="681"/>
      <point x="552" y="622" type="curve"/>
      <point x="521" y="590" type="line"/>
      <point x="476" y="644"/>
      <point x="428" y="669"/>
      <point x="352" y="669" type="curve" smooth="yes"/>
      <point x="214" y="669"/>
      <point x="115" y="542"/>
      <point x="115" y="351" type="curve" smooth="yes"/>
      <point x="115" y="158"/>
      <point x="216" y="31"/>
      <point x="352" y="31" type="curve" smooth="yes"/>
      <point x="423" y="31"/>
      <point x="478" y="59"/>
      <point x="529" y="116" type="curve"/>
      <point x="559" y="85" type="line"/>
      <point x="509" y="26"/>
      <point x="437" y="-11"/>
      <point x="351" y="-11" type="curve" smooth="yes"/>
      <point x="350" y="-11"/>
      <point x="350" y="-11"/>
      <point x="349" y="-11" type="curve"/>
      <point x="333" y="-50" type="line"/>
      <point x="347" y="-41"/>
      <point x="361" y="-38"/>
      <point x="384" y="-38" type="curve" smooth="yes"/>
      <point x="412" y="-38"/>
      <point x="446" y="-58"/>
      <point x="446" y="-101" type="curve" smooth="yes"/>
      <point x="446" y="-157"/>
      <point x="397" y="-177"/>
      <point x="339" y="-177" type="curve" smooth="yes"/>
      <point x="302" y="-177"/>
      <point x="265" y="-166"/>
      <point x="233" y="-145" type="curve"/>
      <point x="247" y="-124" type="line"/>
      <point x="274" y="-143"/>
      <point x="308" y="-152"/>
      <point x="341" y="-152" type="curve" smooth="yes"/>
      <point x="388" y="-152"/>
      <point x="411" y="-131"/>
      <point x="411" y="-102" type="curve" smooth="yes"/>
      <point x="411" y="-77"/>
      <point x="394" y="-63"/>
      <point x="370" y="-63" type="curve" smooth="yes"/>
      <point x="350" y="-63"/>
      <point x="331" y="-71"/>
      <point x="318" y="-84" type="curve"/>
      <point x="292" y="-75" type="line"/>
    </contour>
  </outline>
</glyph>
<glyph name="Eth" format="1">
  <advance width="679"/>
  <unicode hex="00D0"/>
  <outline>
    <contour>
      <point x="602" y="353" type="curve" smooth="yes"/>
      <point x="602" y="103"/>
      <point x="471" y="0"/>
      <point x="280" y="0" type="curve" smooth="yes"/>
      <point x="106" y="0" type="line"/>
      <point x="106" y="344" type="line"/>
      <point x="40" y="344" type="line"/>
      <point x="40" y="386" type="line"/>
      <point x="106" y="386" type="line"/>
      <point x="106" y="700" type="line"/>
      <point x="288" y="700" type="line" smooth="yes"/>
      <point x="478" y="700"/>
      <point x="602" y="594"/>
    </contour>
    <contour>
      <point x="556" y="351" type="curve" smooth="yes"/>
      <point x="556" y="556"/>
      <point x="461" y="658"/>
      <point x="284" y="658" type="curve" smooth="yes"/>
      <point x="151" y="658" type="line"/>
      <point x="151" y="386" type="line"/>
      <point x="303" y="386" type="line"/>
      <point x="303" y="344" type="line"/>
      <point x="151" y="344" type="line"/>
      <point x="151" y="42" type="line"/>
      <point x="286" y="42" type="line" smooth="yes"/>
      <point x="456" y="42"/>
      <point x="556" y="132"/>
    </contour>
  </outline>
</glyph>
<glyph name="Oslash" format="1">
  <advance width="714"/>
  <unicode hex="00D8"/>
  <outline>
    <contour>
      <point x="188" y="48" type="curve"/>
      <point x="114" y="109"/>
      <point x="69" y="216"/>
      <point x="69" y="351" type="curve" smooth="yes"/>
      <point x="69" y="570"/>
      <point x="188" y="711"/>
      <point x="357" y="711" type="curve" smooth="yes"/>
      <point x="406" y="711"/>
      <point x="450" y="699"/>
      <point x="489" y="677" type="curve"/>
      <point x="523" y="750" type="line"/>
      <point x="564" y="750" type="line"/>
      <point x="520" y="657" type="line"/>
      <point x="598" y="596"/>
      <point x="645" y="489"/>
      <point x="645" y="351" type="curve" smooth="yes"/>
      <point x="645" y="132"/>
      <point x="526" y="-11"/>
      <point x="357" y="-11" type="curve" smooth="yes"/>
      <point x="306" y="-11"/>
      <point x="259" y="2"/>
      <point x="219" y="26" type="curve"/>
      <point x="183" y="-50" type="line"/>
      <point x="142" y="-50" type="line"/>
      <point x="142" y="-50"/>
      <point x="169" y="7"/>
    </contour>
    <contour>
      <point x="208" y="90" type="curve"/>
      <point x="470" y="638" type="line"/>
      <point x="437" y="658"/>
      <point x="398" y="669"/>
      <point x="357" y="669" type="curve" smooth="yes"/>
      <point x="219" y="669"/>
      <point x="115" y="549"/>
      <point x="115" y="351" type="curve" smooth="yes"/>
      <point x="115" y="234"/>
      <point x="151" y="144"/>
    </contour>
    <contour>
      <point x="500" y="616" type="curve"/>
      <point x="238" y="66" type="line"/>
      <point x="273" y="43"/>
      <point x="313" y="31"/>
      <point x="357" y="31" type="curve" smooth="yes"/>
      <point x="496" y="31"/>
      <point x="599" y="153"/>
      <point x="599" y="351" type="curve" smooth="yes"/>
      <point x="599" y="471"/>
      <point x="561" y="562"/>
    </contour>
  </outline>
</glyph>
<glyph name="Thorn" format="1">
  <advance width="594"/>
  <unicode hex="00DE"/>
  <outline>
    <contour>
      <point x="549" y="367" type="curve" smooth="yes"/>
      <point x="549" y="230"/>
      <point x="458" y="159"/>
      <point x="311" y="159" type="curve" smooth="yes"/>
      <point x="142" y="159" type="line"/>
      <point x="142" y="0" type="line"/>
      <point x="96" y="0" type="line"/>
      <point x="96" y="700" type="line"/>
      <point x="142" y="700" type="line"/>
      <point x="142" y="567" type="line"/>
      <point x="325" y="567" type="line" smooth="yes"/>
      <point x="457" y="567"/>
      <point x="549" y="508"/>
    </contour>
    <contour>
      <point x="502" y="365" type="curve" smooth="yes"/>
      <point x="502" y="476"/>
      <point x="437" y="525"/>
      <point x="323" y="525" type="curve" smooth="yes"/>
      <point x="142" y="525" type="line"/>
      <point x="142" y="201" type="line"/>
      <point x="311" y="201" type="line" smooth="yes"/>
      <point x="438" y="201"/>
      <point x="502" y="255"/>
    </contour>
  </outline>
</glyph>
<glyph name="germandbls" format="1">
  <advance width="569"/>
  <unicode hex="00DF"/>
  <outline>
    <contour>
      <point x="512" y="222" type="curve" smooth="yes"/>
      <point x="512" y="62"/>
      <point x="401" y="0"/>
      <point x="256" y="0" type="curve" smooth="yes"/>
      <point x="243" y="0" type="line"/>
      <point x="243" y="39" type="line"/>
      <point x="258" y="39" type="line" smooth="yes"/>
      <point x="387" y="39"/>
      <point x="468" y="93"/>
      <point x="468" y="218" type="curve" smooth="yes"/>
      <point x="468" y="326"/>
      <point x="383" y="381"/>
      <point x="261" y="381" type="curve" smooth="yes"/>
      <point x="243" y="381" type="line"/>
      <point x="243" y="419" type="line"/>
      <point x="263" y="419" type="line" smooth="yes"/>
      <point x="363" y="419"/>
      <point x="412" y="469"/>
      <point x="412" y="556" type="curve" smooth="yes"/>
      <point x="412" y="630"/>
      <point x="361" y="684"/>
      <point x="269" y="684" type="curve" smooth="yes"/>
      <point x="185" y="684"/>
      <point x="130" y="628"/>
      <point x="130" y="525" type="curve" smooth="yes"/>
      <point x="130" y="-165" type="line"/>
      <point x="86" y="-190" type="line"/>
      <point x="86" y="518" type="line" smooth="yes"/>
      <point x="86" y="649"/>
      <point x="158" y="723"/>
      <point x="271" y="723" type="curve" smooth="yes"/>
      <point x="388" y="723"/>
      <point x="457" y="649"/>
      <point x="457" y="556" type="curve" smooth="yes"/>
      <point x="457" y="465"/>
      <point x="405" y="419"/>
      <point x="337" y="404" type="curve"/>
      <point x="432" y="391"/>
      <point x="512" y="337"/>
    </contour>
  </outline>
</glyph>
<glyph name="ae" format="1">
  <advance width="869"/>
  <unicode hex="00E6"/>
  <outline>
    <contour>
      <point x="807" y="274" type="curve" smooth="yes"/>
      <point x="807" y="263"/>
      <point x="807" y="256"/>
      <point x="806" y="250" type="curve"/>
      <point x="440" y="250" type="line"/>
      <point x="444" y="109"/>
      <point x="509" y="28"/>
      <point x="606" y="28" type="curve" smooth="yes"/>
      <point x="674" y="28"/>
      <point x="710" y="45"/>
      <point x="758" y="75" type="curve"/>
      <point x="779" y="43" type="line"/>
      <point x="723" y="8"/>
      <point x="680" y="-11"/>
      <point x="601" y="-11" type="curve" smooth="yes"/>
      <point x="534" y="-11"/>
      <point x="469" y="24"/>
      <point x="431" y="99" type="curve"/>
      <point x="379" y="28"/>
      <point x="317" y="-11"/>
      <point x="224" y="-11" type="curve" smooth="yes"/>
      <point x="138" y="-11"/>
      <point x="54" y="28"/>
      <point x="54" y="151" type="curve" smooth="yes"/>
      <point x="54" y="267"/>
      <point x="143" y="320"/>
      <point x="247" y="320" type="curve" smooth="yes"/>
      <point x="311" y="320"/>
      <point x="361" y="302"/>
      <point x="398" y="281" type="curve"/>
      <point x="398" y="359" type="line" smooth="yes"/>
      <point x="398" y="459"/>
      <point x="358" y="499"/>
      <point x="265" y="499" type="curve" smooth="yes"/>
      <point x="205" y="499"/>
      <point x="164" y="482"/>
      <point x="118" y="458" type="curve"/>
      <point x="102" y="494" type="line"/>
      <point x="148" y="518"/>
      <point x="200" y="536"/>
      <point x="268" y="536" type="curve" smooth="yes"/>
      <point x="393" y="536"/>
      <point x="425" y="476"/>
      <point x="430" y="406" type="curve"/>
      <point x="455" y="481"/>
      <point x="521" y="536"/>
      <point x="604" y="536" type="curve" smooth="yes"/>
      <point x="730" y="536"/>
      <point x="807" y="435"/>
    </contour>
    <contour>
      <point x="766" y="286" type="line"/>
      <point x="762" y="419"/>
      <point x="703" y="497"/>
      <point x="604" y="497" type="curve" smooth="yes"/>
      <point x="512" y="497"/>
      <point x="446" y="425"/>
      <point x="440" y="286" type="curve"/>
    </contour>
    <contour>
      <point x="415" y="134" type="curve"/>
      <point x="404" y="166"/>
      <point x="398" y="206"/>
      <point x="397" y="246" type="curve"/>
      <point x="357" y="268"/>
      <point x="313" y="284"/>
      <point x="245" y="284" type="curve" smooth="yes"/>
      <point x="157" y="284"/>
      <point x="97" y="239"/>
      <point x="97" y="153" type="curve" smooth="yes"/>
      <point x="97" y="60"/>
      <point x="157" y="25"/>
      <point x="231" y="25" type="curve" smooth="yes"/>
      <point x="300" y="25"/>
      <point x="365" y="60"/>
    </contour>
  </outline>
</glyph>
<glyph name="ccedilla" format="1">
  <advance width="492"/>
  <unicode hex="00E7"/>
  <outline>
    <contour>
      <point x="241" y="-9" type="line"/>
      <point x="142" y="6"/>
      <point x="57" y="91"/>
      <point x="57" y="261" type="curve" smooth="yes"/>
      <point x="57" y="453"/>
      <point x="168" y="536"/>
      <point x="277" y="536" type="curve" smooth="yes"/>
      <point x="349" y="536"/>
      <point x="397" y="511"/>
      <point x="436" y="478" type="curve"/>
      <point x="409" y="445" type="line"/>
      <point x="372" y="477"/>
      <point x="335" y="497"/>
      <point x="274" y="497" type="curve" smooth="yes"/>
      <point x="182" y="497"/>
      <point x="102" y="416"/>
      <point x="102" y="265" type="curve" smooth="yes"/>
      <point x="102" y="112"/>
      <point x="177" y="28"/>
      <point x="275" y="28" type="curve" smooth="yes"/>
      <point x="331" y="28"/>
      <point x="374" y="49"/>
      <point x="410" y="83" type="curve"/>
      <point x="436" y="54" type="line"/>
      <point x="395" y="14"/>
      <point x="343" y="-11"/>
      <point x="273" y="-11" type="curve" smooth="yes"/>
      <point x="272" y="-11"/>
      <point x="271" y="-11"/>
      <point x="271" y="-11" type="curve"/>
      <point x="255" y="-50" type="line"/>
      <point x="269" y="-41"/>
      <point x="283" y="-38"/>
      <point x="306" y="-38" type="curve" smooth="yes"/>
      <point x="334" y="-38"/>
      <point x="368" y="-58"/>
      <point x="368" y="-101" type="curve" smooth="yes"/>
      <point x="368" y="-157"/>
      <point x="319" y="-177"/>
      <point x="261" y="-177" type="curve" smooth="yes"/>
      <point x="224" y="-177"/>
      <point x="187" y="-166"/>
      <point x="155" y="-145" type="curve"/>
      <point x="169" y="-124" type="line"/>
      <point x="196" y="-143"/>
      <point x="230" y="-152"/>
      <point x="263" y="-152" type="curve" smooth="yes"/>
      <point x="310" y="-152"/>
      <point x="333" y="-131"/>
      <point x="333" y="-102" type="curve" smooth="yes"/>
      <point x="333" y="-77"/>
      <point x="316" y="-63"/>
      <point x="292" y="-63" type="curve" smooth="yes"/>
      <point x="272" y="-63"/>
      <point x="253" y="-71"/>
      <point x="240" y="-84" type="curve"/>
      <point x="214" y="-75" type="line"/>
    </contour>
  </outline>
</glyph>
<glyph name="eth" format="1">
  <advance width="570"/>
  <unicode hex="00F0"/>
  <outline>
    <contour>
      <point x="513" y="301" type="curve" smooth="yes"/>
      <point x="513" y="92"/>
      <point x="434" y="-11"/>
      <point x="282" y="-11" type="curve" smooth="yes"/>
      <point x="155" y="-11"/>
      <point x="57" y="81"/>
      <point x="57" y="235" type="curve" smooth="yes"/>
      <point x="57" y="389"/>
      <point x="151" y="482"/>
      <point x="272" y="482" type="curve" smooth="yes"/>
      <point x="375" y="482"/>
      <point x="445" y="438"/>
      <point x="474" y="360" type="curve"/>
      <point x="456" y="484"/>
      <point x="411" y="563"/>
      <point x="340" y="616" type="curve"/>
      <point x="291" y="561" type="line"/>
      <point x="260" y="586" type="line"/>
      <point x="305" y="636" type="line"/>
      <point x="270" y="655"/>
      <point x="230" y="668"/>
      <point x="185" y="672" type="curve"/>
      <point x="185" y="711" type="line"/>
      <point x="238" y="707"/>
      <point x="288" y="692"/>
      <point x="331" y="667" type="curve"/>
      <point x="364" y="702" type="line"/>
      <point x="394" y="677" type="line"/>
      <point x="364" y="644" type="line"/>
      <point x="456" y="577"/>
      <point x="513" y="458"/>
    </contour>
    <contour>
      <point x="468" y="250" type="curve" smooth="yes"/>
      <point x="468" y="378"/>
      <point x="388" y="443"/>
      <point x="279" y="443" type="curve" smooth="yes"/>
      <point x="169" y="443"/>
      <point x="102" y="364"/>
      <point x="102" y="236" type="curve" smooth="yes"/>
      <point x="102" y="103"/>
      <point x="177" y="28"/>
      <point x="283" y="28" type="curve" smooth="yes"/>
      <point x="397" y="28"/>
      <point x="468" y="111"/>
    </contour>
  </outline>
</glyph>
<glyph name="oslash" format="1">
  <advance width="567"/>
  <unicode hex="00F8"/>
  <outline>
    <contour>
      <point x="510" y="265" type="curve" smooth="yes"/>
      <point x="510" y="88"/>
      <point x="409" y="-11"/>
      <point x="282" y="-11" type="curve" smooth="yes"/>
      <point x="245" y="-11"/>
      <point x="210" y="-3"/>
      <point x="180" y="15" type="curve"/>
      <point x="147" y="-50" type="line"/>
      <point x="108" y="-50" type="line"/>
      <point x="150" y="33" type="line"/>
      <point x="93" y="77"/>
      <point x="57" y="156"/>
      <point x="57" y="262" type="curve" smooth="yes"/>
      <point x="57" y="439"/>
      <point x="158" y="536"/>
      <point x="285" y="536" type="curve" smooth="yes"/>
      <point x="323" y="536"/>
      <point x="357" y="527"/>
      <point x="388" y="509" type="curve"/>
      <point x="422" y="575" type="line"/>
      <point x="461" y="575" type="line"/>
      <point x="419" y="491" type="line"/>
      <point x="474" y="447"/>
      <point x="510" y="370"/>
    </contour>
    <contour>
      <point x="372" y="475" type="line"/>
      <point x="346" y="491"/>
      <point x="316" y="499"/>
      <point x="283" y="499" type="curve" smooth="yes"/>
      <point x="178" y="499"/>
      <point x="101" y="417"/>
      <point x="101" y="264" type="curve" smooth="yes"/>
      <point x="101" y="175"/>
      <point x="127" y="111"/>
      <point x="168" y="72" type="curve"/>
    </contour>
    <contour>
      <point x="467" y="264" type="curve" smooth="yes"/>
      <point x="467" y="350"/>
      <point x="441" y="413"/>
      <point x="400" y="452" type="curve"/>
      <point x="197" y="50" type="line"/>
      <point x="222" y="34"/>
      <point x="251" y="26"/>
      <point x="283" y="26" type="curve" smooth="yes"/>
      <point x="388" y="26"/>
      <point x="467" y="109"/>
    </contour>
  </outline>
</glyph>
<glyph name="dotlessi" format="1">
  <advance width="226"/>
  <unicode hex="0131"/>
  <outline>
    <contour>
      <point x="135" y="0" type="line"/>
      <point x="91" y="0" type="line"/>
      <point x="91" y="525" type="line"/>
      <point x="135" y="525" type="line"/>
    </contour>
  </outline>
</glyph>
<glyph name="Lslash" format="1">
  <advance width="549"/>
  <unicode hex="0141"/>
  <outline>
    <contour>
      <point x="498" y="0" type="line"/>
      <point x="106" y="0" type="line"/>
      <point x="106" y="258" type="line"/>
      <point x="45" y="205" type="line"/>
      <point x="45" y="257" type="line"/>
      <point x="106" y="311" type="line"/>
      <point x="106" y="700" type="line"/>
      <point x="152" y="700" type="line"/>
      <point x="152" y="346" type="line"/>
      <point x="317" y="487" type="line"/>
      <point x="317" y="434" type="line"/>
      <point x="152" y="294" type="line"/>
      <point x="152" y="42" type="line"/>
      <point x="498" y="42" type="line"/>
    </contour>
  </outline>
</glyph>
<glyph name="lslash" format="1">
  <advance width="241"/>
  <unicode hex="0142"/>
  <outline>
    <contour>
      <point x="194" y="356" type="line"/>
      <point x="142" y="312" type="line"/>
      <point x="142" y="0" type="line"/>
      <point x="98" y="0" type="line"/>
      <point x="98" y="277" type="line"/>
      <point x="47" y="232" type="line"/>
      <point x="47" y="286" type="line"/>
      <point x="98" y="331" type="line"/>
      <point x="98" y="704" type="line"/>
      <point x="142" y="729" type="line"/>
      <point x="142" y="365" type="line"/>
      <point x="194" y="410" type="line"/>
    </contour>
  </outline>
</glyph>
<glyph name="OE" format="1">
  <advance width="1049"/>
  <unicode hex="0152"/>
  <outline>
    <contour>
      <point x="1001" y="0" type="line"/>
      <point x="597" y="0" type="line"/>
      <point x="597" y="167" type="line"/>
      <point x="564" y="59"/>
      <point x="481" y="-11"/>
      <point x="355" y="-11" type="curve" smooth="yes"/>
      <point x="187" y="-11"/>
      <point x="69" y="131"/>
      <point x="69" y="350" type="curve" smooth="yes"/>
      <point x="69" y="569"/>
      <point x="187" y="711"/>
      <point x="355" y="711" type="curve" smooth="yes"/>
      <point x="473" y="711"/>
      <point x="565" y="642"/>
      <point x="597" y="534" type="curve"/>
      <point x="597" y="700" type="line"/>
      <point x="986" y="700" type="line"/>
      <point x="986" y="658" type="line"/>
      <point x="638" y="658" type="line"/>
      <point x="638" y="394" type="line"/>
      <point x="848" y="394" type="line"/>
      <point x="848" y="352" type="line"/>
      <point x="638" y="352" type="line"/>
      <point x="638" y="42" type="line"/>
      <point x="1001" y="42" type="line"/>
    </contour>
    <contour>
      <point x="597" y="349" type="curve" smooth="yes"/>
      <point x="597" y="547"/>
      <point x="493" y="669"/>
      <point x="354" y="669" type="curve" smooth="yes"/>
      <point x="216" y="669"/>
      <point x="115" y="549"/>
      <point x="115" y="351" type="curve" smooth="yes"/>
      <point x="115" y="153"/>
      <point x="218" y="31"/>
      <point x="357" y="31" type="curve" smooth="yes"/>
      <point x="495" y="31"/>
      <point x="597" y="151"/>
    </contour>
  </outline>
</glyph>
<glyph name="oe" format="1">
  <advance width="932"/>
  <unicode hex="0153"/>
  <outline>
    <contour>
      <point x="871" y="274" type="curve" smooth="yes"/>
      <point x="871" y="263"/>
      <point x="870" y="256"/>
      <point x="869" y="250" type="curve"/>
      <point x="501" y="250" type="line"/>
      <point x="505" y="109"/>
      <point x="573" y="28"/>
      <point x="668" y="28" type="curve" smooth="yes"/>
      <point x="734" y="28"/>
      <point x="774" y="45"/>
      <point x="822" y="75" type="curve"/>
      <point x="842" y="43" type="line"/>
      <point x="786" y="8"/>
      <point x="739" y="-11"/>
      <point x="663" y="-11" type="curve" smooth="yes"/>
      <point x="574" y="-11"/>
      <point x="499" y="54"/>
      <point x="478" y="151" type="curve"/>
      <point x="454" y="52"/>
      <point x="382" y="-11"/>
      <point x="279" y="-11" type="curve" smooth="yes"/>
      <point x="157" y="-11"/>
      <point x="57" y="85"/>
      <point x="57" y="262" type="curve" smooth="yes"/>
      <point x="57" y="439"/>
      <point x="159" y="536"/>
      <point x="282" y="536" type="curve" smooth="yes"/>
      <point x="383" y="536"/>
      <point x="460" y="473"/>
      <point x="480" y="375" type="curve"/>
      <point x="500" y="472"/>
      <point x="574" y="536"/>
      <point x="666" y="536" type="curve" smooth="yes"/>
      <point x="789" y="536"/>
      <point x="871" y="435"/>
    </contour>
    <contour>
      <point x="829" y="286" type="line"/>
      <point x="825" y="419"/>
      <point x="763" y="497"/>
      <point x="666" y="497" type="curve" smooth="yes"/>
      <point x="577" y="497"/>
      <point x="507" y="425"/>
      <point x="501" y="286" type="curve"/>
    </contour>
    <contour>
      <point x="460" y="264" type="curve" smooth="yes"/>
      <point x="460" y="417"/>
      <point x="382" y="497"/>
      <point x="281" y="497" type="curve" smooth="yes"/>
      <point x="179" y="497"/>
      <point x="102" y="417"/>
      <point x="102" y="264" type="curve" smooth="yes"/>
      <point x="102" y="110"/>
      <point x="179" y="28"/>
      <point x="281" y="28" type="curve" smooth="yes"/>
      <point x="382" y="28"/>
      <point x="460" y="110"/>
    </contour>
  </outline>
</glyph>
<glyph name="florin" format="1">
  <advance width="370"/>
  <unicode hex="0192"/>
  <outline>
    <contour>
      <point x="316" y="659" type="line"/>
      <point x="300" y="666"/>
      <point x="276" y="671"/>
      <point x="249" y="671" type="curve" smooth="yes"/>
      <point x="208" y="671"/>
      <point x="175" y="651"/>
      <point x="175" y="590" type="curve" smooth="yes"/>
      <point x="175" y="525" type="line"/>
      <point x="298" y="525" type="line"/>
      <point x="298" y="488" type="line"/>
      <point x="175" y="488" type="line"/>
      <point x="175" y="-165" type="line"/>
      <point x="131" y="-190" type="line"/>
      <point x="131" y="488" type="line"/>
      <point x="53" y="488" type="line"/>
      <point x="53" y="525" type="line"/>
      <point x="131" y="525" type="line"/>
      <point x="131" y="588" type="line" smooth="yes"/>
      <point x="131" y="679"/>
      <point x="183" y="711"/>
      <point x="247" y="711" type="curve" smooth="yes"/>
      <point x="278" y="711"/>
      <point x="301" y="706"/>
      <point x="316" y="701" type="curve"/>
    </contour>
  </outline>
</glyph>
<glyph name="circumflex" format="1">
  <advance width="500"/>
  <unicode hex="02C6"/>
  <outline>
    <contour>
      <point x="405" y="595" type="line"/>
      <point x="366" y="595" type="line"/>
      <point x="249" y="708" type="line"/>
      <point x="133" y="595" type="line"/>
      <point x="95" y="595" type="line"/>
      <point x="225" y="742" type="line"/>
      <point x="275" y="742" type="line"/>
    </contour>
  </outline>
</glyph>
<glyph name="caron" format="1">
  <advance width="500"/>
  <unicode hex="02C7"/>
  <outline>
    <contour>
      <point x="405" y="742" type="line"/>
      <point x="275" y="595" type="line"/>
      <point x="225" y="595" type="line"/>
      <point x="95" y="742" type="line"/>
      <point x="134" y="742" type="line"/>
      <point x="251" y="629" type="line"/>
      <point x="367" y="742" type="line"/>
    </contour>
  </outline>
</glyph>
<glyph name="breve" format="1">
  <advance width="500"/>
  <unicode hex="02D8"/>
  <outline>
    <contour>
      <point x="406" y="742" type="line"/>
      <point x="399" y="649"/>
      <point x="342" y="594"/>
      <point x="249" y="594" type="curve" smooth="yes"/>
      <point x="161" y="594"/>
      <point x="101" y="649"/>
      <point x="94" y="742" type="curve"/>
      <point x="130" y="742" type="line"/>
      <point x="138" y="667"/>
      <point x="180" y="628"/>
      <point x="251" y="628" type="curve" smooth="yes"/>
      <point x="318" y="628"/>
      <point x="362" y="666"/>
      <point x="370" y="742" type="curve"/>
    </contour>
  </outline>
</glyph>
<glyph name="dotaccent" format="1">
  <advance width="500"/>
  <unicode hex="02D9"/>
  <outline>
    <contour>
      <point x="283" y="662" type="curve" smooth="yes"/>
      <point x="283" y="644"/>
      <point x="268" y="629"/>
      <point x="250" y="629" type="curve" smooth="yes"/>
      <point x="232" y="629"/>
      <point x="217" y="644"/>
      <point x="217" y="662" type="curve" smooth="yes"/>
      <point x="217" y="680"/>
      <point x="232" y="696"/>
      <point x="250" y="696" type="curve" smooth="yes"/>
      <point x="268" y="696"/>
      <point x="283" y="680"/>
    </contour>
  </outline>
</glyph>
<glyph name="ring" format="1">
  <advance width="500"/>
  <unicode hex="02DA"/>
  <outline>
    <contour>
      <point x="348" y="694" type="curve" smooth="yes"/>
      <point x="348" y="640"/>
      <point x="306" y="597"/>
      <point x="250" y="597" type="curve" smooth="yes"/>
      <point x="194" y="597"/>
      <point x="152" y="640"/>
      <point x="152" y="694" type="curve" smooth="yes"/>
      <point x="152" y="749"/>
      <point x="194" y="791"/>
      <point x="250" y="791" type="curve" smooth="yes"/>
      <point x="306" y="791"/>
      <point x="348" y="749"/>
    </contour>
    <contour>
      <point x="319" y="694" type="curve" smooth="yes"/>
      <point x="319" y="734"/>
      <point x="291" y="764"/>
      <point x="250" y="764" type="curve" smooth="yes"/>
      <point x="209" y="764"/>
      <point x="181" y="734"/>
      <point x="181" y="694" type="curve" smooth="yes"/>
      <point x="181" y="654"/>
      <point x="209" y="625"/>
      <point x="250" y="625" type="curve" smooth="yes"/>
      <point x="291" y="625"/>
      <point x="319" y="654"/>
    </contour>
  </outline>
</glyph>
<glyph name="ogonek" format="1">
  <advance width="500"/>
  <unicode hex="02DB"/>
  <outline>
    <contour>
      <point x="364" y="-159" type="line"/>
      <point x="328" y="-178"/>
      <point x="287" y="-193"/>
      <point x="250" y="-193" type="curve" smooth="yes"/>
      <point x="188" y="-193"/>
      <point x="156" y="-161"/>
      <point x="156" y="-110" type="curve" smooth="yes"/>
      <point x="156" y="-66"/>
      <point x="195" y="-25"/>
      <point x="240" y="0" type="curve"/>
      <point x="272" y="0" type="line"/>
      <point x="221" y="-34"/>
      <point x="193" y="-65"/>
      <point x="193" y="-105" type="curve" smooth="yes"/>
      <point x="193" y="-142"/>
      <point x="216" y="-165"/>
      <point x="255" y="-165" type="curve" smooth="yes"/>
      <point x="289" y="-165"/>
      <point x="319" y="-157"/>
      <point x="355" y="-140" type="curve"/>
    </contour>
  </outline>
</glyph>
<glyph name="tilde" format="1">
  <advance width="500"/>
  <unicode hex="02DC"/>
  <outline>
    <contour>
      <point x="415" y="702" type="line"/>
      <point x="412" y="631"/>
      <point x="374" y="597"/>
      <point x="326" y="597" type="curve" smooth="yes"/>
      <point x="298" y="597"/>
      <point x="275" y="609"/>
      <point x="251" y="627" type="curve" smooth="yes"/>
      <point x="213" y="655"/>
      <point x="199" y="667"/>
      <point x="174" y="667" type="curve" smooth="yes"/>
      <point x="147" y="667"/>
      <point x="128" y="648"/>
      <point x="121" y="599" type="curve"/>
      <point x="85" y="599" type="line"/>
      <point x="88" y="670"/>
      <point x="126" y="704"/>
      <point x="174" y="704" type="curve" smooth="yes"/>
      <point x="202" y="704"/>
      <point x="225" y="692"/>
      <point x="249" y="674" type="curve" smooth="yes"/>
      <point x="286" y="646"/>
      <point x="302" y="634"/>
      <point x="326" y="634" type="curve" smooth="yes"/>
      <point x="354" y="634"/>
      <point x="372" y="655"/>
      <point x="379" y="702" type="curve"/>
    </contour>
  </outline>
</glyph>
<glyph name="hungarumlaut" format="1">
  <advance width="500"/>
  <unicode hex="02DD"/>
  <outline>
    <contour>
      <point x="421" y="742" type="line"/>
      <point x="298" y="595" type="line"/>
      <point x="264" y="595" type="line"/>
      <point x="362" y="742" type="line"/>
    </contour>
    <contour>
      <point x="251" y="742" type="line"/>
      <point x="129" y="595" type="line"/>
      <point x="95" y="595" type="line"/>
      <point x="192" y="742" type="line"/>
    </contour>
  </outline>
</glyph>
<glyph name="endash" format="1">
  <advance width="417"/>
  <unicode hex="2013"/>
  <outline>
    <contour>
      <point x="365" y="343" type="line"/>
      <point x="51" y="343" type="line"/>
      <point x="51" y="385" type="line"/>
      <point x="365" y="385" type="line"/>
    </contour>
  </outline>
</glyph>
<glyph name="emdash" format="1">
  <advance width="571"/>
  <unicode hex="2014"/>
  <outline>
    <contour>
      <point x="520" y="343" type="line"/>
      <point x="51" y="343" type="line"/>
      <point x="51" y="385" type="line"/>
      <point x="520" y="385" type="line"/>
    </contour>
  </outline>
</glyph>
<glyph name="quoteleft" format="1">
  <advance width="218"/>
  <unicode hex="2018"/>
  <unicode hex="02BB"/>
  <outline>
    <contour>
      <point x="144" y="700" type="line"/>
      <point x="126" y="509" type="line"/>
      <point x="66" y="509" type="line"/>
      <point x="112" y="700" type="line"/>
    </contour>
  </outline>
</glyph>
<glyph name="quoteright" format="1">
  <advance width="218"/>
  <unicode hex="2019"/>
  <unicode hex="02BC"/>
  <outline>
    <contour>
      <point x="152" y="700" type="line"/>
      <point x="106" y="509" type="line"/>
      <point x="75" y="509" type="line"/>
      <point x="93" y="700" type="line"/>
    </contour>
  </outline>
</glyph>
<glyph name="quotesinglbase" format="1">
  <advance width="218"/>
  <unicode hex="201A"/>
  <outline>
    <contour>
      <point x="149" y="91" type="line"/>
      <point x="103" y="-100" type="line"/>
      <point x="72" y="-100" type="line"/>
      <point x="89" y="91" type="line"/>
    </contour>
  </outline>
</glyph>
<glyph name="quotedblleft" format="1">
  <advance width="406"/>
  <unicode hex="201C"/>
  <outline>
    <contour>
      <point x="331" y="700" type="line"/>
      <point x="314" y="509" type="line"/>
      <point x="254" y="509" type="line"/>
      <point x="300" y="700" type="line"/>
    </contour>
    <contour>
      <point x="144" y="700" type="line"/>
      <point x="126" y="509" type="line"/>
      <point x="66" y="509" type="line"/>
      <point x="112" y="700" type="line"/>
    </contour>
  </outline>
</glyph>
<glyph name="quotedblright" format="1">
  <advance width="406"/>
  <unicode hex="201D"/>
  <outline>
    <contour>
      <point x="340" y="700" type="line"/>
      <point x="294" y="509" type="line"/>
      <point x="263" y="509" type="line"/>
      <point x="280" y="700" type="line"/>
    </contour>
    <contour>
      <point x="152" y="700" type="line"/>
      <point x="106" y="509" type="line"/>
      <point x="75" y="509" type="line"/>
      <point x="93" y="700" type="line"/>
    </contour>
  </outline>
</glyph>
<glyph name="quotedblbase" format="1">
  <advance width="406"/>
  <unicode hex="201E"/>
  <outline>
    <contour>
      <point x="336" y="91" type="line"/>
      <point x="290" y="-100" type="line"/>
      <point x="259" y="-100" type="line"/>
      <point x="277" y="91" type="line"/>
    </contour>
    <contour>
      <point x="149" y="91" type="line"/>
      <point x="103" y="-100" type="line"/>
      <point x="72" y="-100" type="line"/>
      <point x="89" y="91" type="line"/>
    </contour>
  </outline>
</glyph>
<glyph name="dagger" format="1">
  <advance width="539"/>
  <unicode hex="2020"/>
  <outline>
    <contour>
      <point x="488" y="411" type="line"/>
      <point x="290" y="411" type="line"/>
      <point x="290" y="-100" type="line"/>
      <point x="249" y="-100" type="line"/>
      <point x="249" y="411" type="line"/>
      <point x="51" y="411" type="line"/>
      <point x="51" y="451" type="line"/>
      <point x="249" y="451" type="line"/>
      <point x="249" y="700" type="line"/>
      <point x="290" y="700" type="line"/>
      <point x="290" y="451" type="line"/>
      <point x="488" y="451" type="line"/>
    </contour>
  </outline>
</glyph>
<glyph name="daggerdbl" format="1">
  <advance width="539"/>
  <unicode hex="2021"/>
  <outline>
    <contour>
      <point x="488" y="149" type="line"/>
      <point x="290" y="149" type="line"/>
      <point x="290" y="-100" type="line"/>
      <point x="249" y="-100" type="line"/>
      <point x="249" y="149" type="line"/>
      <point x="51" y="149" type="line"/>
      <point x="51" y="188" type="line"/>
      <point x="249" y="188" type="line"/>
      <point x="249" y="412" type="line"/>
      <point x="51" y="412" type="line"/>
      <point x="51" y="451" type="line"/>
      <point x="249" y="451" type="line"/>
      <point x="249" y="700" type="line"/>
      <point x="290" y="700" type="line"/>
      <point x="290" y="451" type="line"/>
      <point x="488" y="451" type="line"/>
      <point x="488" y="412" type="line"/>
      <point x="290" y="412" type="line"/>
      <point x="290" y="188" type="line"/>
      <point x="488" y="188" type="line"/>
    </contour>
  </outline>
</glyph>
<glyph name="ellipsis" format="1">
  <advance width="635"/>
  <unicode hex="2026"/>
  <outline>
    <contour>
      <point x="567" y="32" type="curve" smooth="yes"/>
      <point x="567" y="11"/>
      <point x="549" y="-6"/>
      <point x="529" y="-6" type="curve" smooth="yes"/>
      <point x="508" y="-6"/>
      <point x="491" y="11"/>
      <point x="491" y="32" type="curve" smooth="yes"/>
      <point x="491" y="53"/>
      <point x="508" y="72"/>
      <point x="529" y="72" type="curve" smooth="yes"/>
      <point x="549" y="72"/>
      <point x="567" y="53"/>
    </contour>
    <contour>
      <point x="355" y="32" type="curve" smooth="yes"/>
      <point x="355" y="11"/>
      <point x="337" y="-6"/>
      <point x="317" y="-6" type="curve" smooth="yes"/>
      <point x="296" y="-6"/>
      <point x="279" y="11"/>
      <point x="279" y="32" type="curve" smooth="yes"/>
      <point x="279" y="53"/>
      <point x="296" y="72"/>
      <point x="317" y="72" type="curve" smooth="yes"/>
      <point x="337" y="72"/>
      <point x="355" y="53"/>
    </contour>
    <contour>
      <point x="143" y="32" type="curve" smooth="yes"/>
      <point x="143" y="11"/>
      <point x="125" y="-6"/>
      <point x="105" y="-6" type="curve" smooth="yes"/>
      <point x="84" y="-6"/>
      <point x="67" y="11"/>
      <point x="67" y="32" type="curve" smooth="yes"/>
      <point x="67" y="53"/>
      <point x="84" y="72"/>
      <point x="105" y="72" type="curve" smooth="yes"/>
      <point x="125" y="72"/>
      <point x="143" y="53"/>
    </contour>
  </outline>
</glyph>
<glyph name="guilsinglright" format="1">
  <advance width="343"/>
  <unicode hex="203A"/>
  <outline>
    <contour>
      <point x="54" y="0" type="line"/>
      <point x="257" y="263" type="line"/>
      <point x="54" y="525" type="line"/>
      <point x="104" y="525" type="line"/>
      <point x="307" y="262" type="line"/>
      <point x="104" y="0" type="line"/>
    </contour>
  </outline>
</glyph>
<glyph name="fraction" format="1">
  <advance width="454"/>
  <unicode hex="2044"/>
  <outline>
    <contour>
      <point x="498" y="700" type="line"/>
      <point x="5" y="0" type="line"/>
      <point x="-44" y="0" type="line"/>
      <point x="449" y="700" type="line"/>
    </contour>
  </outline>
</glyph>
<glyph name="Euro" format="1">
  <advance width="588"/>
  <unicode hex="20AC"/>
  <outline>
    <contour>
      <point x="117" y="265" type="line"/>
      <point x="137" y="119"/>
      <point x="213" y="30"/>
      <point x="335" y="30" type="curve" smooth="yes"/>
      <point x="405" y="30"/>
      <point x="452" y="61"/>
      <point x="496" y="114" type="curve"/>
      <point x="528" y="85" type="line"/>
      <point x="480" y="26"/>
      <point x="421" y="-11"/>
      <point x="334" y="-11" type="curve" smooth="yes"/>
      <point x="169" y="-11"/>
      <point x="67" y="123"/>
      <point x="67" y="349" type="curve" smooth="yes"/>
      <point x="67" y="579"/>
      <point x="178" y="711"/>
      <point x="336" y="711" type="curve" smooth="yes"/>
      <point x="422" y="711"/>
      <point x="477" y="682"/>
      <point x="521" y="622" type="curve"/>
      <point x="486" y="593" type="line"/>
      <point x="446" y="644"/>
      <point x="406" y="670"/>
      <point x="335" y="670" type="curve" smooth="yes"/>
      <point x="221" y="670"/>
      <point x="142" y="586"/>
      <point x="118" y="442" type="curve"/>
      <point x="393" y="442" type="line"/>
      <point x="393" y="402" type="line"/>
      <point x="114" y="402" type="line"/>
      <point x="113" y="385"/>
      <point x="112" y="369"/>
      <point x="112" y="351" type="curve" smooth="yes"/>
      <point x="112" y="335"/>
      <point x="113" y="320"/>
      <point x="114" y="305" type="curve"/>
      <point x="393" y="305" type="line"/>
      <point x="393" y="265" type="line"/>
    </contour>
  </outline>
</glyph>
<glyph name="uni2117" format="1">
  <advance width="836"/>
  <unicode hex="2117"/>
  <outline>
    <contour>
      <point x="779" y="350" type="curve" smooth="yes"/>
      <point x="779" y="138"/>
      <point x="625" y="-11"/>
      <point x="418" y="-11" type="curve" smooth="yes"/>
      <point x="211" y="-11"/>
      <point x="57" y="138"/>
      <point x="57" y="350" type="curve" smooth="yes"/>
      <point x="57" y="562"/>
      <point x="211" y="711"/>
      <point x="418" y="711" type="curve" smooth="yes"/>
      <point x="625" y="711"/>
      <point x="779" y="562"/>
    </contour>
    <contour>
      <point x="749" y="350" type="curve" smooth="yes"/>
      <point x="749" y="545"/>
      <point x="608" y="683"/>
      <point x="418" y="683" type="curve" smooth="yes"/>
      <point x="228" y="683"/>
      <point x="87" y="545"/>
      <point x="87" y="350" type="curve" smooth="yes"/>
      <point x="87" y="155"/>
      <point x="228" y="17"/>
      <point x="418" y="17" type="curve" smooth="yes"/>
      <point x="608" y="17"/>
      <point x="749" y="155"/>
    </contour>
    <contour>
      <point x="577" y="431" type="curve" smooth="yes"/>
      <point x="577" y="351"/>
      <point x="523" y="309"/>
      <point x="436" y="309" type="curve" smooth="yes"/>
      <point x="342" y="309" type="line"/>
      <point x="342" y="141" type="line"/>
      <point x="310" y="141" type="line"/>
      <point x="310" y="549" type="line"/>
      <point x="445" y="549" type="line" smooth="yes"/>
      <point x="523" y="549"/>
      <point x="577" y="515"/>
    </contour>
    <contour>
      <point x="546" y="431" type="curve" smooth="yes"/>
      <point x="546" y="496"/>
      <point x="507" y="521"/>
      <point x="442" y="521" type="curve" smooth="yes"/>
      <point x="342" y="521" type="line"/>
      <point x="342" y="339" type="line"/>
      <point x="435" y="339" type="line" smooth="yes"/>
      <point x="508" y="339"/>
      <point x="546" y="367"/>
    </contour>
  </outline>
</glyph>
<glyph name="trademark" format="1">
  <advance width="787"/>
  <unicode hex="2122"/>
  <outline>
    <contour>
      <point x="306" y="674" type="line"/>
      <point x="181" y="674" type="line"/>
      <point x="181" y="292" type="line"/>
      <point x="152" y="292" type="line"/>
      <point x="152" y="674" type="line"/>
      <point x="26" y="674" type="line"/>
      <point x="26" y="700" type="line"/>
      <point x="306" y="700" type="line"/>
    </contour>
    <contour>
      <point x="733" y="292" type="line"/>
      <point x="706" y="292" type="line"/>
      <point x="706" y="639" type="line"/>
      <point x="559" y="285" type="line"/>
      <point x="557" y="285" type="line"/>
      <point x="411" y="639" type="line"/>
      <point x="411" y="292" type="line"/>
      <point x="384" y="292" type="line"/>
      <point x="384" y="700" type="line"/>
      <point x="417" y="700" type="line"/>
      <point x="559" y="350" type="line"/>
      <point x="701" y="700" type="line"/>
      <point x="733" y="700" type="line"/>
    </contour>
  </outline>
</glyph>
<glyph name="arrowleft" format="1">
  <advance width="613"/>
  <unicode hex="2190"/>
  <outline>
    <contour>
      <point x="552" y="326" type="line"/>
      <point x="129" y="326" type="line"/>
      <point x="198" y="241" type="line"/>
      <point x="200" y="237"/>
      <point x="194" y="232"/>
      <point x="189" y="236" type="curve" smooth="yes"/>
      <point x="34" y="347" type="line"/>
      <point x="189" y="459" type="line" smooth="yes"/>
      <point x="194" y="462"/>
      <point x="200" y="457"/>
      <point x="198" y="453" type="curve"/>
      <point x="129" y="368" type="line"/>
      <point x="552" y="368" type="line"/>
    </contour>
  </outline>
</glyph>
<glyph name="arrowright" format="1">
  <advance width="613"/>
  <unicode hex="2192"/>
  <outline>
    <contour>
      <point x="579" y="347" type="line"/>
      <point x="424" y="236" type="line" smooth="yes"/>
      <point x="419" y="232"/>
      <point x="413" y="237"/>
      <point x="415" y="241" type="curve"/>
      <point x="484" y="326" type="line"/>
      <point x="61" y="326" type="line"/>
      <point x="61" y="368" type="line"/>
      <point x="484" y="368" type="line"/>
      <point x="415" y="453" type="line"/>
      <point x="413" y="457"/>
      <point x="419" y="462"/>
      <point x="424" y="459" type="curve" smooth="yes"/>
    </contour>
  </outline>
</glyph>
<glyph name="arrowupdn" format="1">
  <advance width="366"/>
  <unicode hex="2195"/>
  <outline>
    <contour>
      <point x="294" y="140" type="curve" smooth="yes"/>
      <point x="183" y="-15" type="line"/>
      <point x="72" y="140" type="line" smooth="yes"/>
      <point x="68" y="145"/>
      <point x="73" y="151"/>
      <point x="77" y="149" type="curve"/>
      <point x="162" y="80" type="line"/>
      <point x="162" y="620" type="line"/>
      <point x="77" y="551" type="line"/>
      <point x="73" y="549"/>
      <point x="68" y="555"/>
      <point x="72" y="560" type="curve" smooth="yes"/>
      <point x="183" y="715" type="line"/>
      <point x="294" y="560" type="line" smooth="yes"/>
      <point x="298" y="555"/>
      <point x="293" y="549"/>
      <point x="289" y="551" type="curve"/>
      <point x="204" y="620" type="line"/>
      <point x="204" y="80" type="line"/>
      <point x="289" y="149" type="line"/>
      <point x="293" y="151"/>
      <point x="298" y="145"/>
    </contour>
  </outline>
</glyph>
<glyph name="radical" format="1">
  <advance width="554"/>
  <unicode hex="221A"/>
  <outline>
    <contour>
      <point x="508" y="700" type="line"/>
      <point x="244" y="0" type="line"/>
      <point x="202" y="0" type="line"/>
      <point x="46" y="340" type="line"/>
      <point x="93" y="340" type="line"/>
      <point x="223" y="52" type="line"/>
      <point x="463" y="700" type="line"/>
    </contour>
  </outline>
</glyph>
<glyph name="apple" format="1">
  <advance width="720"/>
  <unicode hex="F8FF"/>
  <outline>
    <contour>
      <point x="695" y="347" type="line"/>
      <point x="546" y="234" type="line" smooth="yes"/>
      <point x="541" y="230"/>
      <point x="537" y="234"/>
      <point x="539" y="239" type="curve"/>
      <point x="608" y="327" type="line"/>
      <point x="381" y="327" type="line"/>
      <point x="381" y="72" type="line"/>
      <point x="469" y="142" type="line"/>
      <point x="475" y="144"/>
      <point x="478" y="139"/>
      <point x="475" y="135" type="curve" smooth="yes"/>
      <point x="361" y="-15" type="line"/>
      <point x="248" y="135" type="line"/>
      <point x="244" y="139"/>
      <point x="248" y="144"/>
      <point x="253" y="142" type="curve"/>
      <point x="341" y="72" type="line"/>
      <point x="341" y="327" type="line"/>
      <point x="112" y="327" type="line"/>
      <point x="181" y="239" type="line"/>
      <point x="184" y="234"/>
      <point x="179" y="230"/>
      <point x="174" y="234" type="curve" smooth="yes"/>
      <point x="25" y="347" type="line"/>
      <point x="174" y="461" type="line"/>
      <point x="179" y="464"/>
      <point x="184" y="461"/>
      <point x="181" y="455" type="curve"/>
      <point x="112" y="367" type="line"/>
      <point x="341" y="367" type="line"/>
      <point x="341" y="628" type="line"/>
      <point x="253" y="558" type="line"/>
      <point x="248" y="556"/>
      <point x="244" y="561"/>
      <point x="248" y="565" type="curve"/>
      <point x="361" y="715" type="line"/>
      <point x="475" y="565" type="line" smooth="yes"/>
      <point x="478" y="561"/>
      <point x="475" y="556"/>
      <point x="469" y="558" type="curve"/>
      <point x="381" y="628" type="line"/>
      <point x="381" y="367" type="line"/>
      <point x="608" y="367" type="line"/>
      <point x="539" y="455" type="line"/>
      <point x="537" y="461"/>
      <point x="541" y="464"/>
      <point x="546" y="461" type="curve"/>
    </contour>
  </outline>
</glyph>
<glyph name="fi" format="1">
  <advance width="563"/>
  <unicode hex="FB01"/>
  <outline>
    <contour>
      <point x="482" y="672" type="curve" smooth="yes"/>
      <point x="482" y="655"/>
      <point x="467" y="640"/>
      <point x="451" y="640" type="curve" smooth="yes"/>
      <point x="432" y="640"/>
      <point x="418" y="655"/>
      <point x="418" y="672" type="curve" smooth="yes"/>
      <point x="418" y="690"/>
      <point x="432" y="704"/>
      <point x="451" y="704" type="curve" smooth="yes"/>
      <point x="467" y="704"/>
      <point x="482" y="690"/>
    </contour>
    <contour>
      <point x="302" y="673" type="line"/>
      <point x="287" y="680"/>
      <point x="267" y="685"/>
      <point x="240" y="685" type="curve" smooth="yes"/>
      <point x="201" y="685"/>
      <point x="169" y="667"/>
      <point x="169" y="606" type="curve" smooth="yes"/>
      <point x="169" y="525" type="line"/>
      <point x="291" y="525" type="line"/>
      <point x="291" y="488" type="line"/>
      <point x="169" y="488" type="line"/>
      <point x="169" y="0" type="line"/>
      <point x="125" y="0" type="line"/>
      <point x="125" y="488" type="line"/>
      <point x="47" y="488" type="line"/>
      <point x="47" y="525" type="line"/>
      <point x="125" y="525" type="line"/>
      <point x="125" y="602" type="line" smooth="yes"/>
      <point x="125" y="693"/>
      <point x="173" y="725"/>
      <point x="237" y="725" type="curve" smooth="yes"/>
      <point x="268" y="725"/>
      <point x="288" y="720"/>
      <point x="303" y="715" type="curve"/>
    </contour>
    <contour>
      <point x="472" y="0" type="line"/>
      <point x="428" y="0" type="line"/>
      <point x="428" y="525" type="line"/>
      <point x="472" y="525" type="line"/>
    </contour>
  </outline>
</glyph>
<glyph name="fl" format="1">
  <advance width="563"/>
  <unicode hex="FB02"/>
  <outline>
    <contour>
      <point x="472" y="0" type="line"/>
      <point x="428" y="0" type="line"/>
      <point x="428" y="704" type="line"/>
      <point x="472" y="729" type="line"/>
    </contour>
    <contour>
      <point x="302" y="673" type="line"/>
      <point x="287" y="680"/>
      <point x="267" y="685"/>
      <point x="240" y="685" type="curve" smooth="yes"/>
      <point x="201" y="685"/>
      <point x="169" y="667"/>
      <point x="169" y="606" type="curve" smooth="yes"/>
      <point x="169" y="525" type="line"/>
      <point x="291" y="525" type="line"/>
      <point x="291" y="488" type="line"/>
      <point x="169" y="488" type="line"/>
      <point x="169" y="0" type="line"/>
      <point x="125" y="0" type="line"/>
      <point x="125" y="488" type="line"/>
      <point x="47" y="488" type="line"/>
      <point x="47" y="525" type="line"/>
      <point x="125" y="525" type="line"/>
      <point x="125" y="602" type="line" smooth="yes"/>
      <point x="125" y="693"/>
      <point x="173" y="725"/>
      <point x="237" y="725" type="curve" smooth="yes"/>
      <point x="268" y="725"/>
      <point x="288" y="720"/>
      <point x="303" y="715" type="curve"/>
    </contour>
  </outline>
</glyph>
<glyph name="a.salt" format="1">
  <advance width="553"/>
  <outline>
    <contour>
      <point x="467" y="0" type="line"/>
      <point x="423" y="0" type="line"/>
      <point x="423" y="79" type="line"/>
      <point x="383" y="28"/>
      <point x="325" y="-11"/>
      <point x="251" y="-11" type="curve" smooth="yes"/>
      <point x="139" y="-11"/>
      <point x="57" y="69"/>
      <point x="57" y="257" type="curve" smooth="yes"/>
      <point x="57" y="447"/>
      <point x="142" y="536"/>
      <point x="256" y="536" type="curve" smooth="yes"/>
      <point x="328" y="536"/>
      <point x="383" y="500"/>
      <point x="423" y="448" type="curve"/>
      <point x="423" y="525" type="line"/>
      <point x="467" y="525" type="line"/>
    </contour>
    <contour>
      <point x="423" y="124" type="curve"/>
      <point x="423" y="399" type="line"/>
      <point x="388" y="455"/>
      <point x="329" y="497"/>
      <point x="260" y="497" type="curve" smooth="yes"/>
      <point x="159" y="497"/>
      <point x="101" y="420"/>
      <point x="101" y="258" type="curve" smooth="yes"/>
      <point x="101" y="101"/>
      <point x="163" y="28"/>
      <point x="262" y="28" type="curve" smooth="yes"/>
      <point x="327" y="28"/>
      <point x="383" y="67"/>
    </contour>
  </outline>
</glyph>
<glyph name="bullet" format="1">
  <advance width="322"/>
  <outline>
    <contour>
      <point x="238" y="366" type="curve" smooth="yes"/>
      <point x="238" y="323"/>
      <point x="204" y="289"/>
      <point x="161" y="289" type="curve" smooth="yes"/>
      <point x="118" y="289"/>
      <point x="84" y="323"/>
      <point x="84" y="366" type="curve" smooth="yes"/>
      <point x="84" y="409"/>
      <point x="118" y="444"/>
      <point x="161" y="444" type="curve" smooth="yes"/>
      <point x="204" y="444"/>
      <point x="238" y="409"/>
    </contour>
  </outline>
</glyph>
<glyph name="macron" format="1">
  <advance width="500"/>
  <outline>
    <contour>
      <point x="386" y="628" type="line"/>
      <point x="114" y="628" type="line"/>
      <point x="114" y="669" type="line"/>
      <point x="386" y="669" type="line"/>
    </contour>
  </outline>
</glyph>
<glyph name="registered" format="1">
  <advance width="836"/>
  <outline>
    <contour>
      <point x="779" y="350" type="curve" smooth="yes"/>
      <point x="779" y="138"/>
      <point x="625" y="-11"/>
      <point x="418" y="-11" type="curve" smooth="yes"/>
      <point x="211" y="-11"/>
      <point x="57" y="138"/>
      <point x="57" y="350" type="curve" smooth="yes"/>
      <point x="57" y="562"/>
      <point x="211" y="711"/>
      <point x="418" y="711" type="curve" smooth="yes"/>
      <point x="625" y="711"/>
      <point x="779" y="562"/>
    </contour>
    <contour>
      <point x="749" y="350" type="curve" smooth="yes"/>
      <point x="749" y="545"/>
      <point x="608" y="683"/>
      <point x="418" y="683" type="curve" smooth="yes"/>
      <point x="228" y="683"/>
      <point x="87" y="545"/>
      <point x="87" y="350" type="curve" smooth="yes"/>
      <point x="87" y="155"/>
      <point x="228" y="17"/>
      <point x="418" y="17" type="curve" smooth="yes"/>
      <point x="608" y="17"/>
      <point x="749" y="155"/>
    </contour>
    <contour>
      <point x="568" y="448" type="curve" smooth="yes"/>
      <point x="568" y="384"/>
      <point x="531" y="346"/>
      <point x="470" y="335" type="curve"/>
      <point x="564" y="152" type="line"/>
      <point x="527" y="152" type="line"/>
      <point x="434" y="332" type="line"/>
      <point x="430" y="332"/>
      <point x="424" y="331"/>
      <point x="418" y="331" type="curve" smooth="yes"/>
      <point x="328" y="331" type="line"/>
      <point x="328" y="152" type="line"/>
      <point x="297" y="152" type="line"/>
      <point x="297" y="560" type="line"/>
      <point x="434" y="560" type="line" smooth="yes"/>
      <point x="512" y="560"/>
      <point x="568" y="529"/>
    </contour>
    <contour>
      <point x="536" y="448" type="curve" smooth="yes"/>
      <point x="536" y="509"/>
      <point x="497" y="531"/>
      <point x="433" y="531" type="curve" smooth="yes"/>
      <point x="328" y="531" type="line"/>
      <point x="328" y="361" type="line"/>
      <point x="426" y="361" type="line" smooth="yes"/>
      <point x="498" y="361"/>
      <point x="536" y="387"/>
    </contour>
  </outline>
</glyph>
